<?xml version="1.0" encoding="utf-8"?>
<!-- Generator: Adobe Illustrator 28.0.0, SVG Export Plug-In . SVG Version: 6.00 Build 0)  -->
<svg version="1.1" id="레이어_1" xmlns="http://www.w3.org/2000/svg" xmlns:xlink="http://www.w3.org/1999/xlink" x="0px"
	 y="0px" viewBox="0 0 944.3 724" style="enable-background:new 0 0 944.3 724;" xml:space="preserve">
<style type="text/css">
	.st0{fill:#FCDCCE;stroke:#231815;stroke-miterlimit:10;}
	.st1{fill:#FFFFFF;stroke:#231815;stroke-miterlimit:10;}
	.st2{fill:none;stroke:#FFA500;stroke-width:2;stroke-linecap:square;stroke-linejoin:round;}
	
		.st3{clip-path:url(#SVGID_00000089533052139442537770000014542930261990829703_);fill:none;stroke:#000000;stroke-width:1.5;stroke-linecap:square;stroke-linejoin:round;}
	.st4{clip-path:url(#SVGID_00000165937453210485815620000000923697702604525198_);}
	.st5{fill:#FF0000;stroke:#FF0000;stroke-linejoin:round;}
	.st6{stroke:#000000;stroke-width:0.8;stroke-linejoin:round;}
	
		.st7{clip-path:url(#SVGID_00000041275358139246478770000015079064384938114725_);fill:none;stroke:#FFA500;stroke-width:1.5;stroke-linecap:square;stroke-linejoin:round;}
	.st8{fill:none;stroke:#000000;stroke-width:0.8;stroke-linecap:square;}
	
		.st9{clip-path:url(#SVGID_00000139276984789033285280000005695225921353145475_);fill:none;stroke:#FFA500;stroke-width:1.5;stroke-linecap:square;stroke-linejoin:round;}
	
		.st10{clip-path:url(#SVGID_00000022544936547868969940000001212860372732781954_);fill:none;stroke:#000000;stroke-width:1.5;stroke-linecap:square;stroke-linejoin:round;}
	.st11{clip-path:url(#SVGID_00000070805369609255509450000002543294397424799639_);}
	
		.st12{clip-path:url(#SVGID_00000021093580266727473470000012577853935708721852_);fill:none;stroke:#FFA500;stroke-width:1.5;stroke-linecap:square;stroke-linejoin:round;}
	
		.st13{clip-path:url(#SVGID_00000065069573890252972120000010629015436658133401_);fill:none;stroke:#FFA500;stroke-width:1.5;stroke-linecap:square;stroke-linejoin:round;}
</style>
<g id="Fig1">
	<g id="레이어_1_00000114038236104624197930000003188944252551910541_">
		<g id="레이어_2_00000057111821742636866780000012825942516038328962_">
			
				<image style="display:none;overflow:visible;enable-background:new    ;" width="900" height="772" xlink:href="../../../../../Downloads/leg_man_caucasian_asiatic_medial_view-04 (1).png"  transform="matrix(1.0464 0 0 1.4598 -313.6386 -432.2385)">
			</image>
			<path class="st0" d="M176.6,92.9c-1.6,11.4-3.9,27.6-6.5,47.1c-3.6,27.1-5.4,40.9-6.9,56.7c-2.1,22-1.4,24.8-3.2,51.9
				c-2.5,36.3-3.7,54.5-7.3,74.8c-5.7,32.1-11.2,39.8-15.4,73c-2.1,16.4-3.2,33.8-3.2,33.8c-0.6,8.4-1.3,19.1-1.2,32
				c0.1,24.1,2.7,42.7,3.6,48.9c3.9,25.5,6,39.5,13.4,52.5c6.5,11.4,8.1,6.4,34.9,29.6c22.6,19.7,33.9,29.5,35.7,31.4
				c2.9,3.2,8.3,9.2,15.8,11.5c2.6,0.7,7.1,1.6,11.8,1.8c3,0.1,4.4,0.2,6.5,0c4.4-0.5,5.5-1.7,8.9-1.2c2.3,0.4,4.1,1.3,5.1,1.8
				c2.2,1.3,3.5,2.8,4.1,3.4c5.6,5.5,15.1-4.4,19.4,0.7c3.3,4,1.8,14.6,0.6,19.1c-2.3,9.7-7.8,14.4-10.1,16.3
				c-7.2,6-14.4,5.3-18,4.8c-9.7-1.2-10.2-6.7-16.9-5c-5,1.2-6.2,4.8-14.3,6.8c-1.1,0.2-3.1,0.7-7,1.6c-6.2,1.3-7.6,1.4-8.2,1.6
				c-3.5,0.4-6.3,0.1-8.5,0c-1-0.1-5.4-0.5-11.3-2c-4.4-1.2-7.7-2.5-10.2-3.6c-1.9-0.7-1.9-0.8-11-4.8c-4.2-1.8-5.5-2.4-7.7-2.8
				c-0.8-0.1-3-0.5-7.2,0c-4.1,0.5-5.8,1.2-9.6,2c-4.3,1-3.8,0.4-14.3,1.8c-4.1,0.6-7.3,1.1-10.4,1.6c-5.5,0.8-8.2,1.3-11.9,2
				c-6.5,1.3-6,1.6-10.2,2.3c-6.6,1.1-11.8,1.1-13.5,1c-4.9-0.1-4.4-0.6-9.7-0.7c-6.8-0.1-7.6,0.7-10.2-0.5c-1.9-1-4.1-3.4-8.4-8.4
				c-4.6-5.4-6.9-8-7.8-10.4c-1.4-3.5-1.7-8.4-2.3-18.2c-0.4-8-0.6-12.1-0.2-17.7c0.2-2.8,0.7-8.4,2.6-15c2.2-7.8,3.9-8.6,6.1-15.7
				c2.3-7,2.7-12.9,3.2-19.1c1-12-0.8-11.7-0.2-26.4c0.5-10.4,1.5-13.4,0.9-22c-0.3-4.4-0.7-5.6-1.2-11.4
				c-0.6-8.4-0.4-14.5-0.3-17.3c0.2-12.1-1.3-15.8-2.7-36.3c-1-13.7-0.1-9.2-1.4-36.5c-1-22.4-1.6-24.7-1.4-33.6
				c0.1-1.7,0.2-7.8-0.2-15.7c-0.3-6-0.8-9.8-1.3-12.7c-0.7-4.3-1.4-7-1.9-9.3c-2.1-9-1.5-10.5-3.5-23.1c-2.1-12.3-3-12.2-4.3-22.3
				c-1-7.7-1.4-14.5-1.4-14.5c-0.3-5.2-0.2-6.1-0.5-12c-0.4-6.7-0.7-7.4-0.9-11.6c0-1.3-0.1-5.2,0.5-11.6c0.7-7.8,1.5-10.4,2.7-18
				c2.1-13.7,0.9-14.9,3.1-28c0.9-5.2,1.3-6.2,2.2-12c1.2-8.1,1.7-14.1,1.9-16.8c1.5-18.9,4.4-20.3,5.6-37.6
				c1.2-15.5-0.7-18.7,1.6-30.4c1.7-8.4,4.3-14.7,6.2-18.8C105.1,98.3,140.8,95.6,176.6,92.9z"/>
		</g>
		<g>
			<g>
				<path d="M246.4,654.9h5.4v1h-4.2v2.6h4v1h-4v3.7h-1.2V654.9z"/>
				<path d="M260.5,659c0,2.3-1.3,4.3-3.9,4.3c-2.5,0-3.9-1.9-3.9-4.3c0-2.4,1.4-4.3,4-4.3C259.1,654.7,260.5,656.5,260.5,659z
					 M254,659c0,1.8,0.9,3.3,2.6,3.3c1.9,0,2.6-1.5,2.6-3.3s-0.8-3.2-2.6-3.2C254.8,655.8,254,657.2,254,659z"/>
				<path d="M269.6,659c0,2.3-1.3,4.3-3.9,4.3c-2.5,0-3.9-1.9-3.9-4.3c0-2.4,1.4-4.3,4-4.3C268.1,654.7,269.6,656.5,269.6,659z
					 M263.1,659c0,1.8,0.9,3.3,2.6,3.3c1.9,0,2.6-1.5,2.6-3.3s-0.8-3.2-2.6-3.2S263.1,657.2,263.1,659z"/>
				<path d="M273,655.9h-2.7v-1h6.6v1h-2.7v7.3H273V655.9z"/>
			</g>
		</g>
	</g>
</g>
<g id="Fig3">
	<g id="레이어_2_00000183943888482610707440000015671699023487134867_">
		
			<image style="display:none;overflow:visible;enable-background:new    ;" width="900" height="772" xlink:href="../../../../../Downloads/leg_man_caucasian_asiatic_medial_view-04 (1).png"  transform="matrix(1.0464 0 0 1.4598 196.5979 -428.943)">
		</image>
		<path class="st0" d="M686.8,96.2c-1.6,11.4-3.9,27.6-6.5,47.1c-3.6,27.1-5.4,40.9-6.9,56.7c-2.1,22-1.4,24.8-3.2,51.9
			c-2.5,36.3-3.7,54.5-7.3,74.8c-5.7,32.1-11.2,39.8-15.4,73c-2.1,16.4-3.2,33.8-3.2,33.8c-0.6,8.4-1.3,19.1-1.2,32
			c0.1,24.1,2.7,42.7,3.6,48.9c3.9,25.5,6,39.5,13.4,52.5c6.5,11.4,8.1,6.4,34.9,29.6c22.6,19.7,33.9,29.5,35.7,31.4
			c2.9,3.2,8.3,9.2,15.8,11.5c2.6,0.7,7.1,1.6,11.8,1.8c3,0.1,4.4,0.2,6.5,0c4.4-0.5,5.5-1.7,8.9-1.2c2.3,0.4,4.1,1.3,5.1,1.8
			c2.2,1.3,3.5,2.8,4.1,3.4c5.6,5.5,15.1-4.4,19.4,0.7c3.3,4,1.8,14.6,0.6,19.1c-2.3,9.7-7.8,14.4-10.1,16.3c-7.2,6-14.4,5.3-18,4.8
			c-9.7-1.2-10.2-6.7-16.9-5c-5,1.2-6.2,4.8-14.3,6.8c-1.1,0.2-3.1,0.7-7,1.6c-6.2,1.3-7.6,1.4-8.2,1.6c-3.5,0.4-6.3,0.1-8.5,0
			c-1-0.1-5.4-0.5-11.3-2c-4.4-1.2-7.7-2.5-10.2-3.6c-1.9-0.7-1.9-0.8-11-4.8c-4.2-1.8-5.5-2.4-7.7-2.8c-0.8-0.1-3-0.5-7.2,0
			c-4.1,0.5-5.8,1.2-9.6,2c-4.3,1-3.8,0.4-14.3,1.8c-4.1,0.6-7.3,1.1-10.4,1.6c-5.5,0.8-8.2,1.3-11.9,2c-6.5,1.3-6,1.6-10.2,2.3
			c-6.6,1.1-11.8,1.1-13.5,1c-4.9-0.1-4.4-0.6-9.7-0.7c-6.8-0.1-7.6,0.7-10.2-0.5c-1.9-1-4.1-3.4-8.4-8.4c-4.6-5.4-6.9-8-7.8-10.4
			c-1.4-3.5-1.7-8.4-2.3-18.2c-0.4-8-0.6-12.1-0.2-17.7c0.2-2.8,0.7-8.4,2.6-15c2.2-7.8,3.9-8.6,6.1-15.7c2.3-7,2.7-12.9,3.2-19.1
			c1-12-0.8-11.7-0.2-26.4c0.5-10.4,1.5-13.4,0.9-22c-0.3-4.4-0.7-5.6-1.2-11.4c-0.6-8.4-0.4-14.5-0.3-17.3
			c0.2-12.1-1.3-15.8-2.7-36.3c-1-13.7-0.1-9.2-1.4-36.5c-1-22.4-1.6-24.7-1.4-33.6c0.1-1.7,0.2-7.8-0.2-15.7
			c-0.3-6-0.8-9.8-1.3-12.7c-0.7-4.3-1.4-7-1.9-9.3c-2.1-9-1.5-10.5-3.5-23.1c-2.1-12.3-3-12.2-4.3-22.3c-1-7.7-1.4-14.5-1.4-14.5
			c-0.3-5.2-0.2-6.1-0.5-12c-0.4-6.7-0.7-7.4-0.9-11.6c0-1.3-0.1-5.2,0.5-11.6c0.7-7.8,1.5-10.4,2.7-18c2.1-13.7,0.9-14.9,3.1-28
			c0.9-5.2,1.3-6.2,2.2-12c1.2-8.1,1.7-14.1,1.9-16.8c1.5-18.9,4.4-20.3,5.6-37.6c1.2-15.5-0.7-18.7,1.6-30.4
			c1.7-8.4,4.3-14.7,6.2-18.8C615.3,101.6,651,98.9,686.8,96.2z"/>
	</g>
	<g id="레이어_3">
		<g>
			<g>
				<path d="M757.8,662.9v3.6h-1.2v-8.3h3.3c1.7,0,2.7,0.9,2.7,2.2c0,1.1-0.6,1.7-1.4,2c0.6,0.2,1.2,0.7,1.2,2.1v0.4
					c0,0.6,0,1.3,0.1,1.6h-1.2c-0.2-0.4-0.1-1-0.1-1.8v-0.2c0-1.1-0.3-1.6-1.8-1.6H757.8z M757.8,661.9h1.8c1.2,0,1.7-0.5,1.7-1.3
					s-0.6-1.3-1.6-1.3h-1.9V661.9z"/>
				<path d="M763.8,667.1l3.3-9.1h1l-3.3,9.1H763.8z"/>
				<path d="M769.8,658.2h5.4v1H771v2.6h4v1h-4v3.7h-1.2V658.2z"/>
				<path d="M783.9,662.3c0,2.3-1.3,4.3-3.9,4.3c-2.5,0-3.9-1.9-3.9-4.3c0-2.4,1.4-4.3,4-4.3C782.5,658,783.9,659.8,783.9,662.3z
					 M777.4,662.3c0,1.8,0.9,3.3,2.6,3.3c1.9,0,2.6-1.5,2.6-3.3s-0.8-3.2-2.6-3.2S777.4,660.5,777.4,662.3z"/>
				<path d="M793,662.3c0,2.3-1.3,4.3-3.9,4.3c-2.5,0-3.9-1.9-3.9-4.3c0-2.4,1.4-4.3,4-4.3C791.5,658,793,659.8,793,662.3z
					 M786.5,662.3c0,1.8,0.9,3.3,2.6,3.3c1.9,0,2.6-1.5,2.6-3.3s-0.8-3.2-2.6-3.2S786.5,660.5,786.5,662.3z"/>
				<path d="M796.4,659.2h-2.7v-1h6.6v1h-2.7v7.3h-1.2L796.4,659.2L796.4,659.2z"/>
			</g>
		</g>
	</g>
</g>
<g id="Fig2">
	<g id="레이어_2_00000075881118661637258700000016088872961488500885_">
		
			<image style="display:none;overflow:visible;enable-background:new    ;" width="900" height="772" xlink:href="../../../../../Downloads/leg_man_caucasian_asiatic_medial_view-04 (1).png"  transform="matrix(1.0464 0 0 1.4598 -63.7349 -431.8134)">
		</image>
		<path class="st0" d="M426.5,93.3c-1.6,11.4-3.9,27.6-6.5,47.1c-3.6,27.1-5.4,40.9-6.9,56.7c-2.1,22-1.4,24.8-3.2,51.9
			c-2.5,36.3-3.7,54.5-7.3,74.8c-5.7,32.1-11.2,39.8-15.4,73c-2.1,16.4-3.2,33.8-3.2,33.8c-0.6,8.4-1.3,19.1-1.2,32
			c0.1,24.1,2.7,42.7,3.6,48.9c3.9,25.5,6,39.5,13.4,52.5c6.5,11.4,8.1,6.4,34.9,29.6c22.6,19.7,33.9,29.5,35.7,31.4
			c2.9,3.2,8.3,9.2,15.8,11.5c2.6,0.7,7.1,1.6,11.8,1.8c3,0.1,4.4,0.2,6.5,0c4.4-0.5,5.5-1.7,8.9-1.2c2.3,0.4,4.1,1.3,5.1,1.8
			c2.2,1.3,3.5,2.8,4.1,3.4c5.6,5.5,15.1-4.4,19.4,0.7c3.3,4,1.8,14.6,0.6,19.1c-2.3,9.7-7.8,14.4-10.1,16.3c-7.2,6-14.4,5.3-18,4.8
			c-9.7-1.2-10.2-6.7-16.9-5c-5,1.2-6.2,4.8-14.3,6.8c-1.1,0.2-3.1,0.7-7,1.6c-6.2,1.3-7.6,1.4-8.2,1.6c-3.5,0.4-6.3,0.1-8.5,0
			c-1-0.1-5.4-0.5-11.3-2c-4.4-1.2-7.7-2.5-10.2-3.6c-1.9-0.7-1.9-0.8-11-4.8c-4.2-1.8-5.5-2.4-7.7-2.8c-0.8-0.1-3-0.5-7.2,0
			c-4.1,0.5-5.8,1.2-9.6,2c-4.3,1-3.8,0.4-14.3,1.8c-4.1,0.6-7.3,1.1-10.4,1.6c-5.5,0.8-8.2,1.3-11.9,2c-6.5,1.3-6,1.6-10.2,2.3
			c-6.6,1.1-11.8,1.1-13.5,1c-4.9-0.1-4.4-0.6-9.7-0.7c-6.8-0.1-7.6,0.7-10.2-0.5c-1.9-1-4.1-3.4-8.4-8.4c-4.6-5.4-6.9-8-7.8-10.4
			c-1.4-3.5-1.7-8.4-2.3-18.2c-0.4-8-0.6-12.1-0.2-17.7c0.2-2.8,0.7-8.4,2.6-15c2.2-7.8,3.9-8.6,6.1-15.7c2.3-7,2.7-12.9,3.2-19.1
			c1-12-0.8-11.7-0.2-26.4c0.5-10.4,1.5-13.4,0.9-22c-0.3-4.4-0.7-5.6-1.2-11.4c-0.6-8.4-0.4-14.5-0.3-17.3
			c0.2-12.1-1.3-15.8-2.7-36.3c-1-13.7-0.1-9.2-1.4-36.5c-1-22.4-1.6-24.7-1.4-33.6c0.1-1.7,0.2-7.8-0.2-15.7
			c-0.3-6-0.8-9.8-1.3-12.7c-0.7-4.3-1.4-7-1.9-9.3c-2.1-9-1.5-10.5-3.5-23.1c-2.1-12.3-3-12.2-4.3-22.3c-1-7.7-1.4-14.5-1.4-14.5
			c-0.3-5.2-0.2-6.1-0.5-12c-0.4-6.7-0.7-7.4-0.9-11.6c0-1.3-0.1-5.2,0.5-11.6c0.7-7.8,1.5-10.4,2.7-18c2.1-13.7,0.9-14.9,3.1-28
			c0.9-5.2,1.3-6.2,2.2-12c1.2-8.1,1.7-14.1,1.9-16.8c1.5-18.9,4.4-20.3,5.6-37.6c1.2-15.5-0.7-18.7,1.6-30.4
			c1.7-8.4,4.3-14.7,6.2-18.8C355,98.7,390.7,96,426.5,93.3z"/>
	</g>
	<g>
		<g>
			<path d="M496.3,655.3h1.2v7.3h4.3l-0.2,1h-5.4v-8.3H496.3z"/>
			<path d="M502.5,664.2l3.3-9.1h1l-3.3,9.1H502.5z"/>
			<path d="M508.5,655.3h5.4v1h-4.2v2.6h4v1h-4v3.7h-1.2V655.3z"/>
			<path d="M522.6,659.4c0,2.3-1.3,4.3-3.9,4.3c-2.5,0-3.9-1.9-3.9-4.3c0-2.4,1.4-4.3,4-4.3C521.2,655.2,522.6,656.9,522.6,659.4z
				 M516.1,659.4c0,1.8,0.9,3.3,2.6,3.3c1.9,0,2.6-1.5,2.6-3.3s-0.8-3.2-2.6-3.2C516.9,656.2,516.1,657.7,516.1,659.4z"/>
			<path d="M531.7,659.4c0,2.3-1.3,4.3-3.9,4.3c-2.5,0-3.9-1.9-3.9-4.3c0-2.4,1.4-4.3,4-4.3C530.2,655.2,531.7,656.9,531.7,659.4z
				 M525.2,659.4c0,1.8,0.9,3.3,2.6,3.3c1.9,0,2.6-1.5,2.6-3.3s-0.8-3.2-2.6-3.2S525.2,657.7,525.2,659.4z"/>
			<path d="M535.1,656.3h-2.7v-1h6.6v1h-2.7v7.3h-1.2L535.1,656.3L535.1,656.3z"/>
		</g>
	</g>
</g>
<g id="Legend">
	<rect x="716.4" y="93.3" class="st1" width="198.2" height="80.5"/>
	<g>
		<g>
			<path d="M730.1,105.1c1.4,2.3,2,3.3,2.4,3.9l0,0c0.4-0.7,1.3-2,2.5-3.9h2.3l-3.6,5.1l3.6,5.6H735c-1.2-2-2.1-3.4-2.5-4.1l0,0
				c-0.3,0.6-1.2,2-2.5,4.1h-2.3l3.5-5.3l-3.4-5.4C727.8,105.1,730.1,105.1,730.1,105.1z"/>
			<path d="M744.1,109.5v1.8h-5.6v-1.8H744.1z"/>
			<path d="M755,113.4c0,1,0.1,2.1,0.1,2.4h-2c-0.1-0.2-0.1-0.8-0.2-1.3c-0.4,0.7-1.2,1.6-3.2,1.6c-2.5,0-3.6-1.7-3.6-3.3
				c0-2.4,1.9-3.5,5.1-3.5c0.7,0,1.4,0,1.8,0v-0.9c0-0.9-0.3-2-2.2-2c-1.7,0-2,0.8-2.2,1.6h-2c0.1-1.6,1.1-3.2,4.2-3.2
				c2.7,0,4.1,1.1,4.1,3.5v5.1H755z M753,110.7c-0.3,0-1.1,0-1.6,0c-2.1,0-3.1,0.6-3.1,2c0,1,0.7,1.8,2,1.8c2.4,0,2.8-1.7,2.8-3.5
				v-0.3H753z"/>
			<path d="M759,105.1c1.4,2.3,2,3.3,2.4,3.9l0,0c0.4-0.7,1.3-2,2.5-3.9h2.3l-3.6,5.1l3.6,5.6h-2.4c-1.2-2-2.1-3.4-2.5-4.1l0,0
				c-0.3,0.6-1.2,2-2.5,4.1h-2.3l3.5-5.3l-3.4-5.4C756.6,105.1,759,105.1,759,105.1z"/>
			<path d="M767.7,100.4h2.1v2.4h-2.1V100.4z M767.7,105.1h2.1v10.7h-2.1V105.1z"/>
			<path d="M774,112.7c0.3,1.1,1.1,1.8,2.5,1.8c1.5,0,2.1-0.6,2.1-1.5s-0.5-1.4-2.4-1.8c-3.1-0.8-3.8-1.7-3.8-3.2s1.1-3.1,4-3.1
				c2.8,0,4,1.6,4.1,3.1h-2c-0.1-0.6-0.6-1.6-2.2-1.6c-1.4,0-1.8,0.7-1.8,1.3c0,0.7,0.4,1.1,2.3,1.6c3.3,0.8,3.9,1.9,3.9,3.5
				c0,1.9-1.5,3.3-4.2,3.3c-2.9,0-4.2-1.4-4.5-3.3h2V112.7z"/>
			<path d="M730.1,130.3c1.6,4.8,2.6,7.8,2.8,8.8l0,0c0.3-1.2,1.1-3.6,2.7-8.8h2.1l-3.8,11.1c-1.1,3.1-1.9,3.9-4.1,3.9
				c-0.3,0-0.8,0-1.2-0.1v-1.8c0.3,0,0.6,0.1,0.9,0.1c1.3,0,1.8-0.6,2.4-2.2l-4-11.1h2.2V130.3z"/>
			<path d="M744.7,134.7v1.8h-5.6v-1.8H744.7z"/>
			<path d="M755.6,138.6c0,1,0.1,2.1,0.1,2.4h-2c-0.1-0.2-0.1-0.8-0.2-1.3c-0.4,0.7-1.2,1.6-3.2,1.6c-2.5,0-3.6-1.7-3.6-3.3
				c0-2.4,1.9-3.5,5.1-3.5c0.7,0,1.4,0,1.8,0v-0.9c0-0.9-0.3-2-2.2-2c-1.7,0-2,0.8-2.2,1.6h-2c0.1-1.6,1.1-3.2,4.2-3.2
				c2.7,0,4.1,1.1,4.1,3.5v5.1H755.6z M753.5,135.9c-0.3,0-1.1,0-1.6,0c-2.1,0-3.1,0.6-3.1,2c0,1,0.7,1.8,2,1.8
				c2.4,0,2.8-1.7,2.8-3.5v-0.3H753.5z"/>
			<path d="M759.5,130.3c1.4,2.3,2,3.3,2.4,3.9l0,0c0.4-0.7,1.3-2,2.5-3.9h2.3l-3.6,5.1l3.6,5.6h-2.4c-1.2-2-2.1-3.4-2.5-4.1l0,0
				c-0.3,0.6-1.2,2-2.5,4.1H757l3.5-5.3l-3.4-5.4L759.5,130.3L759.5,130.3z"/>
			<path d="M768.3,125.6h2.1v2.4h-2.1V125.6z M768.3,130.3h2.1V141h-2.1V130.3z"/>
			<path d="M774.6,137.9c0.3,1.1,1.1,1.8,2.5,1.8c1.5,0,2.1-0.6,2.1-1.5s-0.5-1.4-2.4-1.8c-3.1-0.8-3.8-1.7-3.8-3.2s1.1-3.1,4-3.1
				c2.8,0,4,1.6,4.1,3.1h-2c-0.1-0.6-0.6-1.6-2.2-1.6c-1.4,0-1.8,0.7-1.8,1.3c0,0.7,0.4,1.1,2.3,1.6c3.3,0.8,3.9,1.9,3.9,3.5
				c0,1.9-1.5,3.3-4.2,3.3c-2.9,0-4.2-1.4-4.5-3.3h2V137.9z"/>
		</g>
	</g>
	<line class="st2" x1="727.9" y1="159.8" x2="779.4" y2="159.8"/>
	<g>
		<g>
			<path d="M785,108.3v-3.1h2.1v3.1H785z M785,115.8v-3.1h2.1v3.1H785z"/>
			<path d="M790.3,115.8v-15.4h2.1v15.4H790.3z"/>
			<path d="M796.7,110.9c0,2,1,3.5,2.8,3.5c1.6,0,2.1-0.8,2.4-1.6h2.1c-0.4,1.4-1.6,3.2-4.6,3.2c-3.4,0-4.8-2.7-4.8-5.5
				c0-3.2,1.6-5.7,4.9-5.7c3.5,0,4.6,2.7,4.6,5.1c0,0.3,0,0.6,0,0.9L796.7,110.9L796.7,110.9z M802.1,109.5c0-1.7-0.8-3-2.6-3
				s-2.6,1.2-2.7,3H802.1z"/>
			<path d="M806.5,107.8c0-0.9,0-1.9,0-2.7h2c0.1,0.3,0.1,1.4,0.1,1.7c0.4-0.9,1.3-1.9,3.3-1.9s3.6,1.3,3.6,4.1v6.9h-2.1v-6.6
				c0-1.5-0.6-2.6-2.2-2.6c-1.9,0-2.7,1.4-2.7,3.5v5.7h-2.1v-8.1H806.5z"/>
			<path d="M827.5,114.8c0,3.4-1.4,5.4-5,5.4c-3.4,0-4.3-1.9-4.5-3.3h2.1c0.3,1.1,1.2,1.7,2.5,1.7c2.3,0,2.9-1.5,2.9-3.9v-0.8
				c-0.6,1.1-1.5,1.8-3.3,1.8c-2.7,0-4.4-2.2-4.4-5.3c0-3.5,2-5.6,4.6-5.6c2,0,2.8,0.9,3.1,1.6c0-0.4,0.1-1.1,0.1-1.4h2
				c0,0.7,0,2.1,0,3.1L827.5,114.8L827.5,114.8z M819.9,110.4c0,2.2,1.1,3.6,2.8,3.6c2.2,0,2.8-1.5,2.8-3.7c0-2.3-0.6-3.7-2.8-3.7
				C820.9,106.6,819.9,108.1,819.9,110.4z"/>
			<path d="M829.2,105.1h1.8V102h2.1v3.1h2.3v1.6h-2.3v6.1c0,1,0.3,1.5,1.2,1.5c0.2,0,0.6,0,0.9-0.1v1.5c-0.5,0.2-1.1,0.2-1.7,0.2
				c-1.7,0-2.5-0.9-2.5-2.7v-6.5h-1.8V105.1z"/>
			<path d="M839.5,100.4v6.2c0.5-0.9,1.5-1.8,3.3-1.8s3.6,1,3.6,4.1v6.8h-2.1v-6.5c0-1.7-0.7-2.7-2.2-2.7c-1.9,0-2.6,1.3-2.6,3.4
				v5.8h-2.1v-15.4L839.5,100.4L839.5,100.4z"/>
			<path d="M854.7,100.4h2.1v2.4h-2.1V100.4z M854.7,105.1h2.1v10.7h-2.1V105.1z"/>
			<path d="M859.8,107.8c0-0.9,0-1.9,0-2.7h2c0.1,0.3,0.1,1.4,0.1,1.7c0.4-0.9,1.3-1.9,3.3-1.9s3.6,1.3,3.6,4.1v6.9h-2.1v-6.6
				c0-1.5-0.6-2.6-2.2-2.6c-1.9,0-2.7,1.4-2.7,3.5v5.7h-2.1v-8.1H859.8z"/>
			<path d="M877.1,107.9c0-0.9,0-1.9,0-2.8h2c0,0.3,0.1,1.1,0.1,1.6c0.5-0.9,1.4-1.8,3.1-1.8c1.5,0,2.5,0.8,2.9,1.9
				c0.6-1,1.6-1.9,3.4-1.9c1.8,0,3.4,1,3.4,3.9v7h-2V109c0-1.2-0.4-2.4-2-2.4s-2.3,1.2-2.3,3.1v6.1h-2v-6.7c0-1.3-0.4-2.5-2-2.5
				s-2.4,1.3-2.4,3.3v5.9h-2v-7.9H877.1z"/>
			<path d="M894.9,107.9c0-0.9,0-1.9,0-2.8h2c0,0.3,0.1,1.1,0.1,1.6c0.5-0.9,1.4-1.8,3.1-1.8c1.5,0,2.5,0.8,2.9,1.9
				c0.6-1,1.6-1.9,3.4-1.9c1.8,0,3.4,1,3.4,3.9v7h-2V109c0-1.2-0.4-2.4-2-2.4s-2.3,1.2-2.3,3.1v6.1h-2v-6.7c0-1.3-0.4-2.5-2-2.5
				s-2.4,1.3-2.4,3.3v5.9h-2v-7.9H894.9z"/>
			<path d="M785,133.5v-3.1h2.1v3.1H785z M785,141v-3.1h2.1v3.1H785z"/>
			<path d="M790.3,141v-15.4h2.1V141H790.3z"/>
			<path d="M796.7,136.1c0,2,1,3.5,2.8,3.5c1.6,0,2.1-0.8,2.4-1.6h2.1c-0.4,1.4-1.6,3.2-4.6,3.2c-3.4,0-4.8-2.7-4.8-5.5
				c0-3.2,1.6-5.7,4.9-5.7c3.5,0,4.6,2.7,4.6,5.1c0,0.3,0,0.6,0,0.9h-7.4V136.1z M802.1,134.7c0-1.7-0.8-3-2.6-3s-2.6,1.2-2.7,3
				H802.1z"/>
			<path d="M806.5,133c0-0.9,0-1.9,0-2.7h2c0.1,0.3,0.1,1.4,0.1,1.7c0.4-0.9,1.3-1.9,3.3-1.9s3.6,1.3,3.6,4.1v6.9h-2.1v-6.6
				c0-1.5-0.6-2.6-2.2-2.6c-1.9,0-2.7,1.4-2.7,3.5v5.7h-2.1V133H806.5z"/>
			<path d="M827.5,140c0,3.4-1.4,5.4-5,5.4c-3.4,0-4.3-1.9-4.5-3.3h2.1c0.3,1.1,1.2,1.7,2.5,1.7c2.3,0,2.9-1.5,2.9-3.9v-0.8
				c-0.6,1.1-1.5,1.8-3.3,1.8c-2.7,0-4.4-2.2-4.4-5.3c0-3.5,2-5.6,4.6-5.6c2,0,2.8,0.9,3.1,1.6c0-0.4,0.1-1.1,0.1-1.4h2
				c0,0.7,0,2.1,0,3.1L827.5,140L827.5,140z M819.9,135.6c0,2.2,1.1,3.6,2.8,3.6c2.2,0,2.8-1.5,2.8-3.7c0-2.3-0.6-3.7-2.8-3.7
				C820.9,131.8,819.9,133.3,819.9,135.6z"/>
			<path d="M829.2,130.3h1.8v-3.1h2.1v3.1h2.3v1.6h-2.3v6.1c0,1,0.3,1.5,1.2,1.5c0.2,0,0.6,0,0.9-0.1v1.5c-0.5,0.2-1.1,0.2-1.7,0.2
				c-1.7,0-2.5-0.9-2.5-2.7V132h-1.8V130.3z"/>
			<path d="M839.5,125.6v6.2c0.5-0.9,1.5-1.8,3.3-1.8s3.6,1,3.6,4.1v6.8h-2.1v-6.5c0-1.7-0.7-2.7-2.2-2.7c-1.9,0-2.6,1.3-2.6,3.4
				v5.8h-2.1v-15.4L839.5,125.6L839.5,125.6z"/>
			<path d="M854.7,125.6h2.1v2.4h-2.1V125.6z M854.7,130.3h2.1V141h-2.1V130.3z"/>
			<path d="M859.8,133c0-0.9,0-1.9,0-2.7h2c0.1,0.3,0.1,1.4,0.1,1.7c0.4-0.9,1.3-1.9,3.3-1.9s3.6,1.3,3.6,4.1v6.9h-2.1v-6.6
				c0-1.5-0.6-2.6-2.2-2.6c-1.9,0-2.7,1.4-2.7,3.5v5.7h-2.1V133H859.8z"/>
			<path d="M877.1,133.1c0-0.9,0-1.9,0-2.8h2c0,0.3,0.1,1.1,0.1,1.6c0.5-0.9,1.4-1.8,3.1-1.8c1.5,0,2.5,0.8,2.9,1.9
				c0.6-1,1.6-1.9,3.4-1.9c1.8,0,3.4,1,3.4,3.9v7h-2v-6.8c0-1.2-0.4-2.4-2-2.4s-2.3,1.2-2.3,3.1v6.1h-2v-6.7c0-1.3-0.4-2.5-2-2.5
				s-2.4,1.3-2.4,3.3v5.9h-2v-7.9H877.1z"/>
			<path d="M894.9,133.1c0-0.9,0-1.9,0-2.8h2c0,0.3,0.1,1.1,0.1,1.6c0.5-0.9,1.4-1.8,3.1-1.8c1.5,0,2.5,0.8,2.9,1.9
				c0.6-1,1.6-1.9,3.4-1.9c1.8,0,3.4,1,3.4,3.9v7h-2v-6.8c0-1.2-0.4-2.4-2-2.4s-2.3,1.2-2.3,3.1v6.1h-2v-6.7c0-1.3-0.4-2.5-2-2.5
				s-2.4,1.3-2.4,3.3v5.9h-2v-7.9H894.9z"/>
			<path d="M785,158.7v-3.1h2.1v3.1H785z M785,166.2v-3.1h2.1v3.1H785z"/>
			<path d="M797,162.1c0.4,1.7,1.6,2.6,3.6,2.6c2.2,0,3-1,3-2.3c0-1.4-0.7-2.2-3.6-2.9c-3.5-0.9-4.7-2.1-4.7-4.1c0-2.2,1.7-4,4.9-4
				c3.5,0,5,2,5.2,4h-2.2c-0.2-1.2-1-2.3-3.1-2.3c-1.7,0-2.6,0.7-2.6,2.1c0,1.3,0.8,1.8,3.3,2.4c4.2,1,4.9,2.6,4.9,4.5
				c0,2.4-1.8,4.3-5.4,4.3c-3.7,0-5.3-2-5.6-4.3H797z"/>
			<path d="M808.8,166.2v-14.6h2.8c2,3.4,6.4,10.4,7.2,12l0,0c-0.1-1.8-0.1-4.1-0.1-6.5v-5.4h2v14.6H818c-1.9-3.1-6.4-10.7-7.3-12.4
				l0,0c0.1,1.6,0.1,4.2,0.1,6.8v5.6h-2V166.2z"/>
			<path d="M831.4,165v5.4h-2.1v-12.3c0-0.9,0-1.8,0-2.6h2c0,0.3,0.1,1,0.1,1.6c0.6-1,1.6-1.9,3.4-1.9c2.5,0,4.3,2.1,4.3,5.3
				c0,3.8-2.1,5.9-4.7,5.9C832.7,166.5,831.9,165.8,831.4,165z M837,160.7c0-2.2-1-3.7-2.7-3.7c-2.1,0-2.9,1.3-2.9,3.9
				c0,2.4,0.7,3.9,2.8,3.9C836,164.8,837,163.2,837,160.7z"/>
			<path d="M849.5,163.8c0,1,0.1,2.1,0.1,2.4h-2c-0.1-0.2-0.1-0.8-0.2-1.3c-0.4,0.7-1.2,1.6-3.2,1.6c-2.5,0-3.6-1.7-3.6-3.3
				c0-2.4,1.9-3.5,5.1-3.5c0.7,0,1.4,0,1.8,0v-0.9c0-0.9-0.3-2-2.2-2c-1.7,0-2,0.8-2.2,1.6h-2c0.1-1.6,1.1-3.2,4.2-3.2
				c2.7,0,4.1,1.1,4.1,3.5v5.1H849.5z M847.5,161.1c-0.3,0-1.1,0-1.6,0c-2.1,0-3.1,0.6-3.1,2c0,1,0.7,1.8,2,1.8
				c2.4,0,2.8-1.7,2.8-3.5v-0.3H847.5z"/>
			<path d="M851.3,155.5h1.8v-3.1h2.1v3.1h2.3v1.6h-2.3v6.1c0,1,0.3,1.5,1.2,1.5c0.2,0,0.6,0,0.9-0.1v1.5c-0.5,0.2-1.1,0.2-1.7,0.2
				c-1.7,0-2.5-0.9-2.5-2.7v-6.5h-1.8V155.5z"/>
			<path d="M861.6,150.8v6.2c0.5-0.9,1.5-1.8,3.3-1.8s3.6,1,3.6,4.1v6.8h-2.1v-6.5c0-1.7-0.7-2.7-2.2-2.7c-1.9,0-2.6,1.3-2.6,3.4
				v5.8h-2.1v-15.4L861.6,150.8L861.6,150.8z"/>
			<path d="M872.6,155.5c1.3,4.9,2,7.7,2.2,8.8l0,0c0.2-1,0.9-3.5,2.3-8.8h2c1.6,5.9,2.1,7.6,2.2,8.6l0,0c0.3-1.1,0.7-2.7,2.2-8.6
				h2.1l-3.3,10.7h-2.2c-1-3.9-1.9-7.3-2.2-8.5l0,0c-0.2,1.2-1.1,4.3-2.2,8.5h-2.3l-3.1-10.7H872.6z"/>
			<path d="M895.9,163.8c0,1,0.1,2.1,0.1,2.4h-2c-0.1-0.2-0.1-0.8-0.2-1.3c-0.4,0.7-1.2,1.6-3.2,1.6c-2.5,0-3.6-1.7-3.6-3.3
				c0-2.4,1.9-3.5,5.1-3.5c0.7,0,1.4,0,1.8,0v-0.9c0-0.9-0.3-2-2.2-2c-1.7,0-2,0.8-2.2,1.6h-2c0.1-1.6,1.1-3.2,4.2-3.2
				c2.7,0,4.1,1.1,4.1,3.5v5.1H895.9z M893.9,161.1c-0.3,0-1.1,0-1.6,0c-2.1,0-3.1,0.6-3.1,2c0,1,0.7,1.8,2,1.8
				c2.4,0,2.8-1.7,2.8-3.5v-0.3H893.9z"/>
			<path d="M899.9,155.5c1.6,4.8,2.6,7.8,2.8,8.8l0,0c0.3-1.2,1.1-3.6,2.7-8.8h2.1l-3.8,11.1c-1.1,3.1-1.9,3.9-4.1,3.9
				c-0.3,0-0.8,0-1.2-0.1v-1.8c0.3,0,0.6,0.1,0.9,0.1c1.3,0,1.8-0.6,2.4-2.2l-4-11.1h2.2V155.5z"/>
		</g>
	</g>
</g>
<g id="L">
	<g id="figure_1_00000038377954598428132160000015776791378880097448_">
		<g id="axes_1_00000039115383852836405930000010085252868190067587_">
			<g id="line2d_1_00000126314425144854696030000013048766864880956033_">
				<g>
					<defs>
						<rect id="SVGID_1_" x="1150.8" y="106.3" width="120.7" height="554.4"/>
					</defs>
					<clipPath id="SVGID_00000073687558599283558200000011574144409032649635_">
						<use xlink:href="#SVGID_1_"  style="overflow:visible;"/>
					</clipPath>
					
						<path style="clip-path:url(#SVGID_00000073687558599283558200000011574144409032649635_);fill:none;stroke:#000000;stroke-width:1.5;stroke-linecap:square;stroke-linejoin:round;" d="
						M1211.2,635.5l16.1-18.7l-9.7-33.3V181.9l2.6-50.4h-46.6l11.3,50.4v406.8l-11.3,30L1211.2,635.5"/>
				</g>
			</g>
			<g id="PathCollection_1_00000106131209164050487360000010784683856745687973_">
				<g>
					<defs>
						<rect id="SVGID_00000029730582918370903940000006716322306301665673_" x="1150.8" y="106.3" width="120.7" height="554.4"/>
					</defs>
					<clipPath id="SVGID_00000134248379337101603260000008085242250842150583_">
						<use xlink:href="#SVGID_00000029730582918370903940000006716322306301665673_"  style="overflow:visible;"/>
					</clipPath>
					<g style="clip-path:url(#SVGID_00000134248379337101603260000008085242250842150583_);">
						<g>
							<path id="m7219255d97_00000149383226924236598660000014375962989070836910_" class="st5" d="M1211.2,638.5
								c0.8,0,1.6-0.3,2.1-0.9c0.6-0.6,0.9-1.3,0.9-2.1s-0.3-1.6-0.9-2.1c-0.6-0.6-1.3-0.9-2.1-0.9c-0.8,0-1.6,0.3-2.1,0.9
								s-0.9,1.3-0.9,2.1s0.3,1.6,0.9,2.1C1209.6,638.2,1210.4,638.5,1211.2,638.5z"/>
						</g>
						<g>
							<path id="m7219255d97_00000114765614911337812510000007187144532891047825_" class="st5" d="M1227.3,619.8
								c0.8,0,1.6-0.3,2.1-0.9c0.6-0.6,0.9-1.3,0.9-2.1s-0.3-1.6-0.9-2.1c-0.6-0.6-1.3-0.9-2.1-0.9c-0.8,0-1.6,0.3-2.1,0.9
								c-0.6,0.6-0.9,1.3-0.9,2.1s0.3,1.6,0.9,2.1C1225.7,619.5,1226.5,619.8,1227.3,619.8z"/>
						</g>
						<g>
							<path id="m7219255d97_00000148622959386715861620000001118492877209784961_" class="st5" d="M1184.8,282.4
								c0.8,0,1.6-0.3,2.1-0.9s0.9-1.3,0.9-2.1c0-0.8-0.3-1.6-0.9-2.1s-1.3-0.9-2.1-0.9c-0.8,0-1.6,0.3-2.1,0.9
								c-0.6,0.6-0.9,1.3-0.9,2.1c0,0.8,0.3,1.6,0.9,2.1C1183.3,282.1,1184,282.4,1184.8,282.4z"/>
						</g>
						<g>
							<path id="m7219255d97_00000054967258025385194560000018013340691753494412_" class="st5" d="M1184.8,422.8
								c0.8,0,1.6-0.3,2.1-0.9s0.9-1.3,0.9-2.1c0-0.8-0.3-1.6-0.9-2.1s-1.3-0.9-2.1-0.9c-0.8,0-1.6,0.3-2.1,0.9
								c-0.6,0.6-0.9,1.3-0.9,2.1c0,0.8,0.3,1.6,0.9,2.1C1183.3,422.5,1184,422.8,1184.8,422.8z"/>
						</g>
						<g>
							<path id="m7219255d97_00000009575059028156987720000004609852440110277553_" class="st5" d="M1184.8,489.9
								c0.8,0,1.6-0.3,2.1-0.9s0.9-1.3,0.9-2.1c0-0.8-0.3-1.6-0.9-2.1s-1.3-0.9-2.1-0.9c-0.8,0-1.6,0.3-2.1,0.9
								c-0.6,0.6-0.9,1.3-0.9,2.1c0,0.8,0.3,1.6,0.9,2.1C1183.3,489.6,1184,489.9,1184.8,489.9z"/>
						</g>
						<g>
							<path id="m7219255d97_00000134212458033731600610000006622298440434603906_" class="st5" d="M1173.6,621.6
								c0.8,0,1.6-0.3,2.1-0.9c0.6-0.6,0.9-1.3,0.9-2.1s-0.3-1.6-0.9-2.1s-1.3-0.9-2.1-0.9s-1.6,0.3-2.1,0.9
								c-0.6,0.6-0.9,1.3-0.9,2.1s0.3,1.6,0.9,2.1C1172,621.3,1172.8,621.6,1173.6,621.6z"/>
						</g>
					</g>
				</g>
			</g>
			<g id="matplotlib.axis_1_00000123434209180420914320000008921809418263487653_">
				<g id="xtick_1_00000006701008064390739610000006226577072124175295_">
					<g id="line2d_2_00000038378953490430535850000003048238603296516511_">
						<g>
							<g>
								<path id="m900eb7e45d_00000016794562135750986170000013197312430789184139_" class="st6" d="M1150.8,660.7v3.5"/>
							</g>
						</g>
					</g>
					<g id="text_1_00000003066591331487124650000002572940539579978420_">
						<g transform="translate(165.248375 655.398438)scale(0.1 -0.1)">
							<g>
								<path id="DejaVuSans-2212_00000070825407985745597840000000861118127828365197_" d="M9760.6-163.4h62.6v-8.3h-62.6V-163.4z"
									/>
							</g>
							<g>
								<path id="DejaVuSans-34_00000173846064874774359970000012551718660807951003_" d="M9871.6-134.6l-24.9-38.9h24.9V-134.6z
									 M9869-126h12.4v-47.5h10.4v-8.2h-10.4v-17.2h-9.8v17.2h-32.9v9.5L9869-126z"/>
							</g>
							<g>
								<path id="DejaVuSans-30_00000027592684174681202070000004475004922434019220_" d="M9929.2-132.5c-5.1,0-8.9-2.5-11.5-7.5
									c-2.6-5-3.8-12.5-3.8-22.5c0-10,1.3-17.5,3.8-22.5c2.6-5,6.4-7.5,11.5-7.5c5.1,0,8.9,2.5,11.5,7.5c2.6,5,3.8,12.5,3.8,22.5
									c0,10-1.3,17.5-3.8,22.5C9938.1-135,9934.3-132.5,9929.2-132.5z M9929.2-124.7c8.2,0,14.4-3.2,18.7-9.7
									c4.3-6.5,6.5-15.8,6.5-28.1c0-12.3-2.2-21.6-6.5-28.1c-4.3-6.5-10.6-9.7-18.7-9.7c-8.2,0-14.4,3.2-18.7,9.7
									c-4.3,6.5-6.5,15.8-6.5,28.1c0,12.3,2.2,21.7,6.5,28.1C9914.8-127.9,9921-124.7,9929.2-124.7z"/>
							</g>
						</g>
					</g>
				</g>
				<g id="xtick_2_00000021841032590184774980000016731949759411763342_">
					<g id="line2d_3_00000053503571922426979650000008945829164846181784_">
						<g>
							<g>
								<path id="m900eb7e45d_00000165204157515679511260000005959402750893812622_" class="st6" d="M1181,660.7v3.5"/>
							</g>
						</g>
					</g>
					<g id="text_2_00000155846961959546504930000013060534513711327668_">
						<g transform="translate(195.428016 655.398438)scale(0.1 -0.1)">
							<g>
								<path id="DejaVuSans-2212_00000057116923428466100320000016263080638887192975_" d="M9760.6-163.4h62.6v-8.3h-62.6V-163.4z"
									/>
							</g>
							<g>
								<path id="DejaVuSans-32_00000108306318540376827170000018032462701747727026_" d="M9853-190.6h34.4v-8.3h-46.3v8.3
									c3.7,3.9,8.8,9.1,15.3,15.6c6.5,6.5,10.5,10.7,12.2,12.6c3.2,3.5,5.4,6.5,6.6,9c1.3,2.5,1.9,4.9,1.9,7.2
									c0,3.9-1.4,7-4.1,9.5c-2.7,2.4-6.3,3.7-10.6,3.7c-3.1,0-6.4-0.5-9.8-1.6c-3.4-1.1-7.1-2.7-11-4.9v10c4,1.6,7.7,2.8,11.1,3.6
									c3.5,0.8,6.6,1.2,9.5,1.2c7.6,0,13.6-1.9,18.1-5.7c4.5-3.8,6.7-8.8,6.7-15.1c0-3-0.6-5.8-1.7-8.5c-1.1-2.7-3.2-5.8-6.1-9.5
									c-0.8-0.9-3.4-3.7-7.8-8.2C9867.1-176.2,9860.9-182.5,9853-190.6z"/>
							</g>
							<g>
								<path id="DejaVuSans-30_00000023271911686018206860000003639903535358722736_" d="M9929.2-132.5c-5.1,0-8.9-2.5-11.5-7.5
									c-2.6-5-3.8-12.5-3.8-22.5c0-10,1.3-17.5,3.8-22.5c2.6-5,6.4-7.5,11.5-7.5c5.1,0,8.9,2.5,11.5,7.5c2.6,5,3.8,12.5,3.8,22.5
									c0,10-1.3,17.5-3.8,22.5C9938.1-135,9934.3-132.5,9929.2-132.5z M9929.2-124.7c8.2,0,14.4-3.2,18.7-9.7
									c4.3-6.5,6.5-15.8,6.5-28.1c0-12.3-2.2-21.6-6.5-28.1c-4.3-6.5-10.6-9.7-18.7-9.7c-8.2,0-14.4,3.2-18.7,9.7
									c-4.3,6.5-6.5,15.8-6.5,28.1c0,12.3,2.2,21.7,6.5,28.1C9914.8-127.9,9921-124.7,9929.2-124.7z"/>
							</g>
						</g>
					</g>
				</g>
				<g id="xtick_3_00000012466513089912076550000001441014882312041123_">
					<g id="line2d_4_00000052805731335082578740000011276914594435482553_">
						<g>
							<g>
								<path id="m900eb7e45d_00000080200230617419141610000012311189273271825027_" class="st6" d="M1211.2,660.7v3.5"/>
							</g>
						</g>
					</g>
					<g id="text_3_00000160881088216022832720000004897700462410524068_">
						<g transform="translate(232.97875 655.398438)scale(0.1 -0.1)">
							<g>
								<path id="DejaVuSans-30_00000011021986168622656510000000677296665388642450_" d="M9781.8-132.5c-5.1,0-8.9-2.5-11.5-7.5
									c-2.6-5-3.8-12.5-3.8-22.5c0-10,1.3-17.5,3.8-22.5c2.6-5,6.4-7.5,11.5-7.5c5.1,0,8.9,2.5,11.5,7.5c2.6,5,3.8,12.5,3.8,22.5
									c0,10-1.3,17.5-3.8,22.5C9790.7-135,9786.9-132.5,9781.8-132.5z M9781.8-124.7c8.2,0,14.4-3.2,18.7-9.7
									c4.3-6.5,6.5-15.8,6.5-28.1c0-12.3-2.2-21.6-6.5-28.1c-4.3-6.5-10.6-9.7-18.7-9.7c-8.2,0-14.4,3.2-18.7,9.7
									c-4.3,6.5-6.5,15.8-6.5,28.1c0,12.3,2.2,21.7,6.5,28.1C9767.4-127.9,9773.6-124.7,9781.8-124.7z"/>
							</g>
						</g>
					</g>
				</g>
				<g id="xtick_4_00000157301547528693458600000009958769014650251199_">
					<g id="line2d_5_00000121985852172183879440000002793842900928836534_">
						<g>
							<g>
								<path id="m900eb7e45d_00000102524731577292040740000002410259564675209637_" class="st6" d="M1241.3,660.7v3.5"/>
							</g>
						</g>
					</g>
					<g id="text_4_00000162315453279285628300000005857756094721833387_">
						<g transform="translate(259.977141 655.398438)scale(0.1 -0.1)">
							<g>
								<path id="DejaVuSans-32_00000121964232951110424290000001390423676135348609_" d="M9769.2-190.6h34.4v-8.3h-46.3v8.3
									c3.7,3.9,8.8,9.1,15.3,15.6c6.5,6.5,10.5,10.7,12.2,12.6c3.2,3.5,5.4,6.5,6.6,9c1.3,2.5,1.9,4.9,1.9,7.2
									c0,3.9-1.4,7-4.1,9.5c-2.7,2.4-6.3,3.7-10.6,3.7c-3.1,0-6.4-0.5-9.8-1.6c-3.4-1.1-7.1-2.7-11-4.9v10c4,1.6,7.7,2.8,11.1,3.6
									c3.5,0.8,6.6,1.2,9.5,1.2c7.6,0,13.6-1.9,18.1-5.7c4.5-3.8,6.7-8.8,6.7-15.1c0-3-0.6-5.8-1.7-8.5c-1.1-2.7-3.2-5.8-6.1-9.5
									c-0.8-0.9-3.4-3.7-7.8-8.2C9783.3-176.2,9777.1-182.5,9769.2-190.6z"/>
							</g>
							<g>
								<path id="DejaVuSans-30_00000086668992935472494520000005730967967518561974_" d="M9845.4-132.5c-5.1,0-8.9-2.5-11.5-7.5
									c-2.6-5-3.8-12.5-3.8-22.5c0-10,1.3-17.5,3.8-22.5c2.6-5,6.4-7.5,11.5-7.5c5.1,0,8.9,2.5,11.5,7.5c2.6,5,3.8,12.5,3.8,22.5
									c0,10-1.3,17.5-3.8,22.5C9854.4-135,9850.5-132.5,9845.4-132.5z M9845.4-124.7c8.2,0,14.4-3.2,18.7-9.7
									c4.3-6.5,6.5-15.8,6.5-28.1c0-12.3-2.2-21.6-6.5-28.1c-4.3-6.5-10.6-9.7-18.7-9.7c-8.2,0-14.4,3.2-18.7,9.7
									c-4.3,6.5-6.5,15.8-6.5,28.1c0,12.3,2.2,21.7,6.5,28.1C9831-127.9,9837.2-124.7,9845.4-124.7z"/>
							</g>
						</g>
					</g>
				</g>
				<g id="xtick_5_00000150097956542312301320000003640082981925037982_">
					<g id="line2d_6_00000180328305988002162080000013286624625440982422_">
						<g>
							<g>
								<path id="m900eb7e45d_00000123405754533451721770000001690614576105507240_" class="st6" d="M1271.5,660.7v3.5"/>
							</g>
						</g>
					</g>
					<g id="text_5_00000038392499403040848450000007213403803084992946_">
						<g transform="translate(290.156781 655.398438)scale(0.1 -0.1)">
							<g>
								<path id="DejaVuSans-34_00000063623671422472330080000017765778531360905088_" d="M9787.8-134.6l-24.9-38.9h24.9V-134.6z
									 M9785.2-126h12.4v-47.5h10.4v-8.2h-10.4v-17.2h-9.8v17.2h-32.9v9.5L9785.2-126z"/>
							</g>
							<g>
								<path id="DejaVuSans-30_00000158709956833890786240000016298438334288898725_" d="M9845.4-132.5c-5.1,0-8.9-2.5-11.5-7.5
									c-2.6-5-3.8-12.5-3.8-22.5c0-10,1.3-17.5,3.8-22.5c2.6-5,6.4-7.5,11.5-7.5c5.1,0,8.9,2.5,11.5,7.5c2.6,5,3.8,12.5,3.8,22.5
									c0,10-1.3,17.5-3.8,22.5C9854.4-135,9850.5-132.5,9845.4-132.5z M9845.4-124.7c8.2,0,14.4-3.2,18.7-9.7
									c4.3-6.5,6.5-15.8,6.5-28.1c0-12.3-2.2-21.6-6.5-28.1c-4.3-6.5-10.6-9.7-18.7-9.7c-8.2,0-14.4,3.2-18.7,9.7
									c-4.3,6.5-6.5,15.8-6.5,28.1c0,12.3,2.2,21.7,6.5,28.1C9831-127.9,9837.2-124.7,9845.4-124.7z"/>
							</g>
						</g>
					</g>
				</g>
			</g>
			<g id="matplotlib.axis_2_00000070107418214679587830000003022314802436394148_">
				<g id="ytick_1_00000060738700926750013530000001328894233479250102_">
					<g id="line2d_7_00000114044810632530339390000017169423797732691090_">
						<g>
							<g>
								<path id="maad4feab80_00000115481384068002596140000015374326019796702084_" class="st6" d="M1150.8,635.5h-3.5"/>
							</g>
						</g>
					</g>
					<g id="text_6_00000084528965501941781700000010456043110790701483_">
						<g transform="translate(162.438219 619.399219)scale(0.1 -0.1)">
							<g>
								<path id="DejaVuSans-30_00000107554927409881433840000008685723201457706159_" d="M9781.8-132.5c-5.1,0-8.9-2.5-11.5-7.5
									c-2.6-5-3.8-12.5-3.8-22.5c0-10,1.3-17.5,3.8-22.5c2.6-5,6.4-7.5,11.5-7.5c5.1,0,8.9,2.5,11.5,7.5c2.6,5,3.8,12.5,3.8,22.5
									c0,10-1.3,17.5-3.8,22.5C9790.7-135,9786.9-132.5,9781.8-132.5z M9781.8-124.7c8.2,0,14.4-3.2,18.7-9.7
									c4.3-6.5,6.5-15.8,6.5-28.1c0-12.3-2.2-21.6-6.5-28.1c-4.3-6.5-10.6-9.7-18.7-9.7c-8.2,0-14.4,3.2-18.7,9.7
									c-4.3,6.5-6.5,15.8-6.5,28.1c0,12.3,2.2,21.7,6.5,28.1C9767.4-127.9,9773.6-124.7,9781.8-124.7z"/>
							</g>
						</g>
					</g>
				</g>
				<g id="ytick_2_00000083087695610443449560000002111612114243829898_">
					<g id="line2d_8_00000031929090920505337050000000126816105471240581_">
						<g>
							<g>
								<path id="maad4feab80_00000164513576567964581370000001709029813559708551_" class="st6" d="M1150.8,560h-3.5"/>
							</g>
						</g>
					</g>
					<g id="text_7_00000066512172660843288920000004466040875105097860_">
						<g transform="translate(156.075719 543.950117)scale(0.1 -0.1)">
							<g>
								<path id="DejaVuSans-35_00000131335197895093855950000003714432324569710235_" d="M9760.8-126h38.7v-8.3h-29.7v-17.9
									c1.4,0.5,2.9,0.9,4.3,1.1c1.4,0.2,2.9,0.4,4.3,0.4c8.1,0,14.6-2.2,19.3-6.7c4.8-4.5,7.1-10.5,7.1-18.1
									c0-7.8-2.4-13.9-7.3-18.3c-4.9-4.3-11.8-6.5-20.7-6.5c-3.1,0-6.2,0.3-9.4,0.8c-3.2,0.5-6.4,1.3-9.8,2.3v9.9
									c2.9-1.6,6-2.8,9.1-3.6s6.4-1.2,9.9-1.2c5.6,0,10.1,1.5,13.4,4.4c3.3,3,4.9,7,4.9,12.1c0,5.1-1.6,9.1-4.9,12
									c-3.3,3-7.7,4.5-13.4,4.5c-2.6,0-5.3-0.3-7.9-0.9c-2.6-0.6-5.3-1.5-8-2.7V-126z"/>
							</g>
							<g>
								<path id="DejaVuSans-30_00000168832707855054185740000011215589242588221600_" d="M9845.4-132.5c-5.1,0-8.9-2.5-11.5-7.5
									c-2.6-5-3.8-12.5-3.8-22.5c0-10,1.3-17.5,3.8-22.5c2.6-5,6.4-7.5,11.5-7.5c5.1,0,8.9,2.5,11.5,7.5c2.6,5,3.8,12.5,3.8,22.5
									c0,10-1.3,17.5-3.8,22.5C9854.4-135,9850.5-132.5,9845.4-132.5z M9845.4-124.7c8.2,0,14.4-3.2,18.7-9.7
									c4.3-6.5,6.5-15.8,6.5-28.1c0-12.3-2.2-21.6-6.5-28.1c-4.3-6.5-10.6-9.7-18.7-9.7c-8.2,0-14.4,3.2-18.7,9.7
									c-4.3,6.5-6.5,15.8-6.5,28.1c0,12.3,2.2,21.7,6.5,28.1C9831-127.9,9837.2-124.7,9845.4-124.7z"/>
							</g>
						</g>
					</g>
				</g>
				<g id="ytick_3_00000181781961783084831700000013731775192032136321_">
					<g id="line2d_9_00000042699225475152928020000017076311635973720720_">
						<g>
							<g>
								<path id="maad4feab80_00000052081388595789424620000001520764639837117609_" class="st6" d="M1150.8,484.6h-3.5"/>
							</g>
						</g>
					</g>
					<g id="text_8_00000017475394522167364660000007804422563270954906_">
						<g transform="translate(149.713219 468.501015)scale(0.1 -0.1)">
							<g>
								<path id="DejaVuSans-31_00000085224090106430970650000012200797549605856429_" d="M9762.4-190.6h16.1v55.6l-17.5-3.5v9
									l17.4,3.5h9.9v-64.6h16.1v-8.3h-42V-190.6z"/>
							</g>
							<g>
								<path id="DejaVuSans-30_00000087404235742047312500000010061384188772071843_" d="M9845.4-132.5c-5.1,0-8.9-2.5-11.5-7.5
									c-2.6-5-3.8-12.5-3.8-22.5c0-10,1.3-17.5,3.8-22.5c2.6-5,6.4-7.5,11.5-7.5c5.1,0,8.9,2.5,11.5,7.5c2.6,5,3.8,12.5,3.8,22.5
									c0,10-1.3,17.5-3.8,22.5C9854.4-135,9850.5-132.5,9845.4-132.5z M9845.4-124.7c8.2,0,14.4-3.2,18.7-9.7
									c4.3-6.5,6.5-15.8,6.5-28.1c0-12.3-2.2-21.6-6.5-28.1c-4.3-6.5-10.6-9.7-18.7-9.7c-8.2,0-14.4,3.2-18.7,9.7
									c-4.3,6.5-6.5,15.8-6.5,28.1c0,12.3,2.2,21.7,6.5,28.1C9831-127.9,9837.2-124.7,9845.4-124.7z"/>
							</g>
							<g>
								<path id="DejaVuSans-30_00000130616528970111576970000002941608334233650361_" d="M9909-132.5c-5.1,0-8.9-2.5-11.5-7.5
									c-2.6-5-3.8-12.5-3.8-22.5c0-10,1.3-17.5,3.8-22.5c2.6-5,6.4-7.5,11.5-7.5c5.1,0,8.9,2.5,11.5,7.5c2.6,5,3.8,12.5,3.8,22.5
									c0,10-1.3,17.5-3.8,22.5C9918-135,9914.1-132.5,9909-132.5z M9909-124.7c8.2,0,14.4-3.2,18.7-9.7c4.3-6.5,6.5-15.8,6.5-28.1
									c0-12.3-2.2-21.6-6.5-28.1c-4.3-6.5-10.6-9.7-18.7-9.7c-8.2,0-14.4,3.2-18.7,9.7c-4.3,6.5-6.5,15.8-6.5,28.1
									c0,12.3,2.2,21.7,6.5,28.1C9894.6-127.9,9900.9-124.7,9909-124.7z"/>
							</g>
						</g>
					</g>
				</g>
				<g id="ytick_4_00000015341818622719845890000000638625996916964237_">
					<g id="line2d_10_00000147210218804486673510000007510400439955501457_">
						<g>
							<g>
								<path id="maad4feab80_00000124862053438601314010000016806449619759126433_" class="st6" d="M1150.8,409.1h-3.5"/>
							</g>
						</g>
					</g>
					<g id="text_9_00000076588474589669445260000018184772260467944639_">
						<g transform="translate(149.713219 393.051913)scale(0.1 -0.1)">
							<g>
								<path id="DejaVuSans-31_00000101078549654500034110000002481937679222776735_" d="M9762.4-190.6h16.1v55.6l-17.5-3.5v9
									l17.4,3.5h9.9v-64.6h16.1v-8.3h-42V-190.6z"/>
							</g>
							<g>
								<path id="DejaVuSans-35_00000000936615804464016890000011115013758613909422_" d="M9824.4-126h38.7v-8.3h-29.7v-17.9
									c1.4,0.5,2.9,0.9,4.3,1.1c1.4,0.2,2.9,0.4,4.3,0.4c8.1,0,14.6-2.2,19.3-6.7c4.8-4.5,7.1-10.5,7.1-18.1
									c0-7.8-2.4-13.9-7.3-18.3c-4.9-4.3-11.8-6.5-20.7-6.5c-3.1,0-6.2,0.3-9.4,0.8c-3.2,0.5-6.4,1.3-9.8,2.3v9.9
									c2.9-1.6,6-2.8,9.1-3.6s6.4-1.2,9.9-1.2c5.6,0,10.1,1.5,13.4,4.4c3.3,3,4.9,7,4.9,12.1c0,5.1-1.6,9.1-4.9,12
									c-3.3,3-7.7,4.5-13.4,4.5c-2.6,0-5.3-0.3-7.9-0.9c-2.6-0.6-5.3-1.5-8-2.7V-126z"/>
							</g>
							<g>
								<path id="DejaVuSans-30_00000025439597881591003620000001027687706440110484_" d="M9909-132.5c-5.1,0-8.9-2.5-11.5-7.5
									c-2.6-5-3.8-12.5-3.8-22.5c0-10,1.3-17.5,3.8-22.5c2.6-5,6.4-7.5,11.5-7.5c5.1,0,8.9,2.5,11.5,7.5c2.6,5,3.8,12.5,3.8,22.5
									c0,10-1.3,17.5-3.8,22.5C9918-135,9914.1-132.5,9909-132.5z M9909-124.7c8.2,0,14.4-3.2,18.7-9.7c4.3-6.5,6.5-15.8,6.5-28.1
									c0-12.3-2.2-21.6-6.5-28.1c-4.3-6.5-10.6-9.7-18.7-9.7c-8.2,0-14.4,3.2-18.7,9.7c-4.3,6.5-6.5,15.8-6.5,28.1
									c0,12.3,2.2,21.7,6.5,28.1C9894.6-127.9,9900.9-124.7,9909-124.7z"/>
							</g>
						</g>
					</g>
				</g>
				<g id="ytick_5_00000018229838472471881850000015175005209968841393_">
					<g id="line2d_11_00000136398533878864392960000017532518822488784787_">
						<g>
							<g>
								<path id="maad4feab80_00000052792489781724058490000011378168119995889594_" class="st6" d="M1150.8,333.7h-3.5"/>
							</g>
						</g>
					</g>
					<g id="text_10_00000131367819972419740130000007730300726259262340_">
						<g transform="translate(149.713219 317.602812)scale(0.1 -0.1)">
							<g>
								<path id="DejaVuSans-32_00000087393957195446188910000015305991215771868038_" d="M9769.2-190.6h34.4v-8.3h-46.3v8.3
									c3.7,3.9,8.8,9.1,15.3,15.6c6.5,6.5,10.5,10.7,12.2,12.6c3.2,3.5,5.4,6.5,6.6,9c1.3,2.5,1.9,4.9,1.9,7.2
									c0,3.9-1.4,7-4.1,9.5c-2.7,2.4-6.3,3.7-10.6,3.7c-3.1,0-6.4-0.5-9.8-1.6c-3.4-1.1-7.1-2.7-11-4.9v10c4,1.6,7.7,2.8,11.1,3.6
									c3.5,0.8,6.6,1.2,9.5,1.2c7.6,0,13.6-1.9,18.1-5.7c4.5-3.8,6.7-8.8,6.7-15.1c0-3-0.6-5.8-1.7-8.5c-1.1-2.7-3.2-5.8-6.1-9.5
									c-0.8-0.9-3.4-3.7-7.8-8.2C9783.3-176.2,9777.1-182.5,9769.2-190.6z"/>
							</g>
							<g>
								<path id="DejaVuSans-30_00000018206033124697568020000012193898797197689520_" d="M9845.4-132.5c-5.1,0-8.9-2.5-11.5-7.5
									c-2.6-5-3.8-12.5-3.8-22.5c0-10,1.3-17.5,3.8-22.5c2.6-5,6.4-7.5,11.5-7.5c5.1,0,8.9,2.5,11.5,7.5c2.6,5,3.8,12.5,3.8,22.5
									c0,10-1.3,17.5-3.8,22.5C9854.4-135,9850.5-132.5,9845.4-132.5z M9845.4-124.7c8.2,0,14.4-3.2,18.7-9.7
									c4.3-6.5,6.5-15.8,6.5-28.1c0-12.3-2.2-21.6-6.5-28.1c-4.3-6.5-10.6-9.7-18.7-9.7c-8.2,0-14.4,3.2-18.7,9.7
									c-4.3,6.5-6.5,15.8-6.5,28.1c0,12.3,2.2,21.7,6.5,28.1C9831-127.9,9837.2-124.7,9845.4-124.7z"/>
							</g>
							<g>
								<path id="DejaVuSans-30_00000037683696706170807130000007803008778983243674_" d="M9909-132.5c-5.1,0-8.9-2.5-11.5-7.5
									c-2.6-5-3.8-12.5-3.8-22.5c0-10,1.3-17.5,3.8-22.5c2.6-5,6.4-7.5,11.5-7.5c5.1,0,8.9,2.5,11.5,7.5c2.6,5,3.8,12.5,3.8,22.5
									c0,10-1.3,17.5-3.8,22.5C9918-135,9914.1-132.5,9909-132.5z M9909-124.7c8.2,0,14.4-3.2,18.7-9.7c4.3-6.5,6.5-15.8,6.5-28.1
									c0-12.3-2.2-21.6-6.5-28.1c-4.3-6.5-10.6-9.7-18.7-9.7c-8.2,0-14.4,3.2-18.7,9.7c-4.3,6.5-6.5,15.8-6.5,28.1
									c0,12.3,2.2,21.7,6.5,28.1C9894.6-127.9,9900.9-124.7,9909-124.7z"/>
							</g>
						</g>
					</g>
				</g>
				<g id="ytick_6_00000087408593925142714380000013067828178372523705_">
					<g id="line2d_12_00000045577256317305075310000009631098026883070859_">
						<g>
							<g>
								<path id="maad4feab80_00000031170197784955169800000013404623950347693501_" class="st6" d="M1150.8,258.2h-3.5"/>
							</g>
						</g>
					</g>
					<g id="text_11_00000151503762019075759220000004605637300083961256_">
						<g transform="translate(149.713219 242.15371)scale(0.1 -0.1)">
							<g>
								<path id="DejaVuSans-32_00000113331285557809753900000016264030735059387265_" d="M9769.2-190.6h34.4v-8.3h-46.3v8.3
									c3.7,3.9,8.8,9.1,15.3,15.6c6.5,6.5,10.5,10.7,12.2,12.6c3.2,3.5,5.4,6.5,6.6,9c1.3,2.5,1.9,4.9,1.9,7.2
									c0,3.9-1.4,7-4.1,9.5c-2.7,2.4-6.3,3.7-10.6,3.7c-3.1,0-6.4-0.5-9.8-1.6c-3.4-1.1-7.1-2.7-11-4.9v10c4,1.6,7.7,2.8,11.1,3.6
									c3.5,0.8,6.6,1.2,9.5,1.2c7.6,0,13.6-1.9,18.1-5.7c4.5-3.8,6.7-8.8,6.7-15.1c0-3-0.6-5.8-1.7-8.5c-1.1-2.7-3.2-5.8-6.1-9.5
									c-0.8-0.9-3.4-3.7-7.8-8.2C9783.3-176.2,9777.1-182.5,9769.2-190.6z"/>
							</g>
							<g>
								<path id="DejaVuSans-35_00000028287243071405046600000014274674581515252883_" d="M9824.4-126h38.7v-8.3h-29.7v-17.9
									c1.4,0.5,2.9,0.9,4.3,1.1c1.4,0.2,2.9,0.4,4.3,0.4c8.1,0,14.6-2.2,19.3-6.7c4.8-4.5,7.1-10.5,7.1-18.1
									c0-7.8-2.4-13.9-7.3-18.3c-4.9-4.3-11.8-6.5-20.7-6.5c-3.1,0-6.2,0.3-9.4,0.8c-3.2,0.5-6.4,1.3-9.8,2.3v9.9
									c2.9-1.6,6-2.8,9.1-3.6s6.4-1.2,9.9-1.2c5.6,0,10.1,1.5,13.4,4.4c3.3,3,4.9,7,4.9,12.1c0,5.1-1.6,9.1-4.9,12
									c-3.3,3-7.7,4.5-13.4,4.5c-2.6,0-5.3-0.3-7.9-0.9c-2.6-0.6-5.3-1.5-8-2.7V-126z"/>
							</g>
							<g>
								<path id="DejaVuSans-30_00000158004219835215365600000011403323887872647327_" d="M9909-132.5c-5.1,0-8.9-2.5-11.5-7.5
									c-2.6-5-3.8-12.5-3.8-22.5c0-10,1.3-17.5,3.8-22.5c2.6-5,6.4-7.5,11.5-7.5c5.1,0,8.9,2.5,11.5,7.5c2.6,5,3.8,12.5,3.8,22.5
									c0,10-1.3,17.5-3.8,22.5C9918-135,9914.1-132.5,9909-132.5z M9909-124.7c8.2,0,14.4-3.2,18.7-9.7c4.3-6.5,6.5-15.8,6.5-28.1
									c0-12.3-2.2-21.6-6.5-28.1c-4.3-6.5-10.6-9.7-18.7-9.7c-8.2,0-14.4,3.2-18.7,9.7c-4.3,6.5-6.5,15.8-6.5,28.1
									c0,12.3,2.2,21.7,6.5,28.1C9894.6-127.9,9900.9-124.7,9909-124.7z"/>
							</g>
						</g>
					</g>
				</g>
				<g id="ytick_7_00000015355141268697971680000011711060469335526279_">
					<g id="line2d_13_00000099636055015063251020000012834929319002262929_">
						<g>
							<g>
								<path id="maad4feab80_00000029757676839280904800000009787977702648822166_" class="st6" d="M1150.8,182.8h-3.5"/>
							</g>
						</g>
					</g>
					<g id="text_12_00000038394430352863220120000001039493653608839335_">
						<g transform="translate(149.713219 166.704608)scale(0.1 -0.1)">
							<g>
								<path id="DejaVuSans-33_00000034055672423872857270000013927789390184411045_" d="M9790.6-159.6c4.7-1,8.4-3.1,11-6.3
									c2.7-3.2,4-7.1,4-11.8c0-7.2-2.5-12.8-7.4-16.7c-4.9-3.9-12-5.9-21.1-5.9c-3.1,0-6.2,0.3-9.4,0.9c-3.2,0.6-6.6,1.5-10,2.7
									v9.5c2.7-1.6,5.7-2.8,9-3.6c3.3-0.8,6.7-1.2,10.2-1.2c6.2,0,10.9,1.2,14.1,3.7s4.9,6,4.9,10.6c0,4.3-1.5,7.7-4.5,10.1
									c-3,2.4-7.2,3.6-12.6,3.6h-8.5v8.1h8.9c4.8,0,8.6,1,11.1,2.9s3.9,4.7,3.9,8.4c0,3.7-1.3,6.6-4,8.6c-2.6,2-6.4,3-11.4,3
									c-2.7,0-5.6-0.3-8.7-0.9c-3.1-0.6-6.5-1.5-10.2-2.7v8.8c3.8,1,7.3,1.8,10.5,2.3s6.4,0.8,9.2,0.8c7.5,0,13.4-1.7,17.8-5.1
									c4.4-3.4,6.5-8,6.5-13.8c0-4-1.2-7.5-3.5-10.2S9794.8-158.5,9790.6-159.6z"/>
							</g>
							<g>
								<path id="DejaVuSans-30_00000036956746098586602110000012635099691938429342_" d="M9845.4-132.5c-5.1,0-8.9-2.5-11.5-7.5
									c-2.6-5-3.8-12.5-3.8-22.5c0-10,1.3-17.5,3.8-22.5c2.6-5,6.4-7.5,11.5-7.5c5.1,0,8.9,2.5,11.5,7.5c2.6,5,3.8,12.5,3.8,22.5
									c0,10-1.3,17.5-3.8,22.5C9854.4-135,9850.5-132.5,9845.4-132.5z M9845.4-124.7c8.2,0,14.4-3.2,18.7-9.7
									c4.3-6.5,6.5-15.8,6.5-28.1c0-12.3-2.2-21.6-6.5-28.1c-4.3-6.5-10.6-9.7-18.7-9.7c-8.2,0-14.4,3.2-18.7,9.7
									c-4.3,6.5-6.5,15.8-6.5,28.1c0,12.3,2.2,21.7,6.5,28.1C9831-127.9,9837.2-124.7,9845.4-124.7z"/>
							</g>
							<g>
								<path id="DejaVuSans-30_00000084516409942715428420000008762601048202319289_" d="M9909-132.5c-5.1,0-8.9-2.5-11.5-7.5
									c-2.6-5-3.8-12.5-3.8-22.5c0-10,1.3-17.5,3.8-22.5c2.6-5,6.4-7.5,11.5-7.5c5.1,0,8.9,2.5,11.5,7.5c2.6,5,3.8,12.5,3.8,22.5
									c0,10-1.3,17.5-3.8,22.5C9918-135,9914.1-132.5,9909-132.5z M9909-124.7c8.2,0,14.4-3.2,18.7-9.7c4.3-6.5,6.5-15.8,6.5-28.1
									c0-12.3-2.2-21.6-6.5-28.1c-4.3-6.5-10.6-9.7-18.7-9.7c-8.2,0-14.4,3.2-18.7,9.7c-4.3,6.5-6.5,15.8-6.5,28.1
									c0,12.3,2.2,21.7,6.5,28.1C9894.6-127.9,9900.9-124.7,9909-124.7z"/>
							</g>
						</g>
					</g>
				</g>
				<g id="ytick_8_00000071532361219076401550000017106451630549359274_">
					<g id="line2d_14_00000173866052188763535790000010603803880911649942_">
						<g>
							<g>
								<path id="maad4feab80_00000099660466745907844130000008873092455808210093_" class="st6" d="M1150.8,107.3h-3.5"/>
							</g>
						</g>
					</g>
					<g id="text_13_00000170965189984569741120000010433710318130052543_">
						<g transform="translate(149.713219 91.255506)scale(0.1 -0.1)">
							<g>
								<path id="DejaVuSans-33_00000133530529481698887550000012097394863951466642_" d="M9790.6-159.6c4.7-1,8.4-3.1,11-6.3
									c2.7-3.2,4-7.1,4-11.8c0-7.2-2.5-12.8-7.4-16.7c-4.9-3.9-12-5.9-21.1-5.9c-3.1,0-6.2,0.3-9.4,0.9c-3.2,0.6-6.6,1.5-10,2.7
									v9.5c2.7-1.6,5.7-2.8,9-3.6c3.3-0.8,6.7-1.2,10.2-1.2c6.2,0,10.9,1.2,14.1,3.7s4.9,6,4.9,10.6c0,4.3-1.5,7.7-4.5,10.1
									c-3,2.4-7.2,3.6-12.6,3.6h-8.5v8.1h8.9c4.8,0,8.6,1,11.1,2.9s3.9,4.7,3.9,8.4c0,3.7-1.3,6.6-4,8.6c-2.6,2-6.4,3-11.4,3
									c-2.7,0-5.6-0.3-8.7-0.9c-3.1-0.6-6.5-1.5-10.2-2.7v8.8c3.8,1,7.3,1.8,10.5,2.3s6.4,0.8,9.2,0.8c7.5,0,13.4-1.7,17.8-5.1
									c4.4-3.4,6.5-8,6.5-13.8c0-4-1.2-7.5-3.5-10.2S9794.8-158.5,9790.6-159.6z"/>
							</g>
							<g>
								<path id="DejaVuSans-35_00000085240337054820464950000007800953569324995982_" d="M9824.4-126h38.7v-8.3h-29.7v-17.9
									c1.4,0.5,2.9,0.9,4.3,1.1c1.4,0.2,2.9,0.4,4.3,0.4c8.1,0,14.6-2.2,19.3-6.7c4.8-4.5,7.1-10.5,7.1-18.1
									c0-7.8-2.4-13.9-7.3-18.3c-4.9-4.3-11.8-6.5-20.7-6.5c-3.1,0-6.2,0.3-9.4,0.8c-3.2,0.5-6.4,1.3-9.8,2.3v9.9
									c2.9-1.6,6-2.8,9.1-3.6s6.4-1.2,9.9-1.2c5.6,0,10.1,1.5,13.4,4.4c3.3,3,4.9,7,4.9,12.1c0,5.1-1.6,9.1-4.9,12
									c-3.3,3-7.7,4.5-13.4,4.5c-2.6,0-5.3-0.3-7.9-0.9c-2.6-0.6-5.3-1.5-8-2.7V-126z"/>
							</g>
							<g>
								<path id="DejaVuSans-30_00000006695911880635242930000012359571454094033326_" d="M9909-132.5c-5.1,0-8.9-2.5-11.5-7.5
									c-2.6-5-3.8-12.5-3.8-22.5c0-10,1.3-17.5,3.8-22.5c2.6-5,6.4-7.5,11.5-7.5c5.1,0,8.9,2.5,11.5,7.5c2.6,5,3.8,12.5,3.8,22.5
									c0,10-1.3,17.5-3.8,22.5C9918-135,9914.1-132.5,9909-132.5z M9909-124.7c8.2,0,14.4-3.2,18.7-9.7c4.3-6.5,6.5-15.8,6.5-28.1
									c0-12.3-2.2-21.6-6.5-28.1c-4.3-6.5-10.6-9.7-18.7-9.7c-8.2,0-14.4,3.2-18.7,9.7c-4.3,6.5-6.5,15.8-6.5,28.1
									c0,12.3,2.2,21.7,6.5,28.1C9894.6-127.9,9900.9-124.7,9909-124.7z"/>
							</g>
						</g>
					</g>
				</g>
			</g>
			<g id="line2d_15_00000049921925444352616710000002221944435168291004_">
				<g>
					<defs>
						<rect id="SVGID_00000002377751636783855700000007095102016809134496_" x="1150.8" y="106.3" width="120.7" height="554.4"/>
					</defs>
					<clipPath id="SVGID_00000064324558137866057470000012863735661071710364_">
						<use xlink:href="#SVGID_00000002377751636783855700000007095102016809134496_"  style="overflow:visible;"/>
					</clipPath>
					
						<path style="clip-path:url(#SVGID_00000064324558137866057470000012863735661071710364_);fill:none;stroke:#FFA500;stroke-width:1.5;stroke-linecap:square;stroke-linejoin:round;" d="
						M1184.8,279.4l5.7,140.4l3.3,67.1l9.8,129.9l26.3,18.7"/>
				</g>
			</g>
			<g id="patch_3_00000018938627636972912230000013439433397536784547_">
				<path class="st8" d="M1150.8,660.7V106.3"/>
			</g>
			<g id="patch_4_00000030460929379696399140000008215151603170439871_">
				<path class="st8" d="M1271.5,660.7V106.3"/>
			</g>
			<g id="patch_5_00000137124069380954290550000017865370304021145791_">
				<path class="st8" d="M1150.8,660.7h120.7"/>
			</g>
			<g id="patch_6_00000096038124691142481060000015628080484551350680_">
				<path class="st8" d="M1150.8,106.3h120.7"/>
			</g>
			<g id="line2d_16_00000150084339419149410480000012318441074304555938_">
				<g>
					<defs>
						<rect id="SVGID_00000141452006234100650240000004259742156813712278_" x="1150.8" y="106.3" width="120.7" height="554.4"/>
					</defs>
					<clipPath id="SVGID_00000116199039957058815160000015038800899763380660_">
						<use xlink:href="#SVGID_00000141452006234100650240000004259742156813712278_"  style="overflow:visible;"/>
					</clipPath>
					
						<path style="clip-path:url(#SVGID_00000116199039957058815160000015038800899763380660_);fill:none;stroke:#FFA500;stroke-width:1.5;stroke-linecap:square;stroke-linejoin:round;" d="
						M1184.8,279.4l5.7,140.4l3.3,67.1l13,129.9l24.3,18.7"/>
				</g>
			</g>
			<g id="text_14_00000037677481587266102090000015518461039338196671_">
				<g transform="translate(236.16 615.6)scale(0.1 -0.1)">
					<g>
						<path id="DejaVuSans-54_00000107546681055153443880000013967212463402466962_" d="M9749.7-126h61.7v-8.3h-25.9v-64.6h-9.9
							v64.6h-25.9V-126z"/>
					</g>
					<g>
						<path id="DejaVuSans-49_00000083786420422531564090000007361396286467670954_" d="M9820.9-126h9.9v-72.9h-9.9V-126z"/>
					</g>
					<g>
						<path id="DejaVuSans-50_00000016052039655010359960000006620323942051716794_" d="M9860.2-134.1v-27.4h12.4
							c4.6,0,8.1,1.2,10.6,3.6c2.5,2.4,3.8,5.8,3.8,10.2c0,4.4-1.3,7.7-3.8,10.1c-2.5,2.4-6,3.6-10.6,3.6H9860.2z M9850.4-126h22.3
							c8.2,0,14.4-1.8,18.5-5.5c4.2-3.7,6.3-9.1,6.3-16.2c0-7.2-2.1-12.6-6.3-16.3c-4.2-3.7-10.4-5.5-18.5-5.5h-12.4v-29.3h-9.9
							V-126z"/>
					</g>
				</g>
			</g>
			<g id="text_15_00000023278188876270008130000014113461759908576166_">
				<g transform="translate(252.275928 596.888623)scale(0.1 -0.1)">
					<g>
						<path id="DejaVuSans-4d_00000159450355237887546260000000283725342542613918_" d="M9759.8-126h14.7l18.6-49.6l18.7,49.6h14.7
							v-72.9h-9.6v64l-18.8-50h-9.9l-18.8,50v-64h-9.6V-126z"/>
					</g>
					<g>
						<path id="DejaVuSans-49_00000066501406122238791390000015601129146173902509_" d="M9846.1-126h9.9v-72.9h-9.9V-126z"/>
					</g>
					<g>
						<path id="DejaVuSans-44_00000156568620966274348060000011828323361002992796_" d="M9885.4-134.1v-56.7h11.9
							c10.1,0,17.4,2.3,22.1,6.8c4.7,4.6,7,11.8,7,21.6c0,9.8-2.3,16.9-7,21.5s-12,6.8-22.1,6.8H9885.4z M9875.6-126h20.3
							c14.1,0,24.5-2.9,31.1-8.8c6.6-5.9,9.9-15.1,9.9-27.6c0-12.6-3.3-21.8-10-27.7c-6.6-5.9-17-8.8-31-8.8h-20.3V-126z"/>
					</g>
				</g>
			</g>
			<g id="text_16_00000131354706541419219950000012869913025193081225_">
				<g transform="translate(209.837317 259.48024)scale(0.1 -0.1)">
					<g>
						<path id="DejaVuSans-43_00000098217221836360154560000010089503542754361227_" d="M9814.4-131.6V-142
							c-3.3,3.1-6.9,5.4-10.6,6.9c-3.8,1.5-7.8,2.3-12,2.3c-8.3,0-14.7-2.5-19.1-7.6s-6.6-12.5-6.6-22.1c0-9.6,2.2-17,6.6-22
							s10.8-7.6,19.1-7.6c4.2,0,8.2,0.8,12,2.3s7.3,3.8,10.6,6.9v-10.3c-3.4-2.3-7.1-4.1-11-5.3c-3.9-1.2-7.9-1.8-12.2-1.8
							c-11,0-19.7,3.4-26.1,10.1c-6.3,6.8-9.5,16-9.5,27.7c0,11.7,3.2,21,9.5,27.7c6.4,6.8,15.1,10.1,26.1,10.1
							c4.4,0,8.5-0.6,12.3-1.7C9807.4-127.6,9811-129.3,9814.4-131.6z"/>
					</g>
					<g>
						<path id="DejaVuSans-50_00000084504047643756083300000010707391709654104973_" d="M9839.5-134.1v-27.4h12.4
							c4.6,0,8.1,1.2,10.6,3.6c2.5,2.4,3.8,5.8,3.8,10.2c0,4.4-1.3,7.7-3.8,10.1c-2.5,2.4-6,3.6-10.6,3.6H9839.5z M9829.6-126h22.3
							c8.2,0,14.4-1.8,18.5-5.5c4.2-3.7,6.3-9.1,6.3-16.2c0-7.2-2.1-12.6-6.3-16.3c-4.2-3.7-10.4-5.5-18.5-5.5h-12.4v-29.3h-9.9
							V-126z"/>
					</g>
				</g>
			</g>
			<g id="text_17_00000050627379914137404730000014942942682013387439_">
				<g transform="translate(209.837317 399.90683)scale(0.1 -0.1)">
					<g>
						<path id="DejaVuSans-4d_00000130648123092163874160000000639385563019328696_" d="M9759.8-126h14.7l18.6-49.6l18.7,49.6h14.7
							v-72.9h-9.6v64l-18.8-50h-9.9l-18.8,50v-64h-9.6V-126z"/>
					</g>
					<g>
						<path id="DejaVuSans-49_00000052809705585278586390000014671400395705225378_" d="M9846.1-126h9.9v-72.9h-9.9V-126z"/>
					</g>
					<g>
						<path id="DejaVuSans-44_00000175307644950507340350000011524166340615062686_" d="M9885.4-134.1v-56.7h11.9
							c10.1,0,17.4,2.3,22.1,6.8c4.7,4.6,7,11.8,7,21.6c0,9.8-2.3,16.9-7,21.5s-12,6.8-22.1,6.8H9885.4z M9875.6-126h20.3
							c14.1,0,24.5-2.9,31.1-8.8c6.6-5.9,9.9-15.1,9.9-27.6c0-12.6-3.3-21.8-10-27.7c-6.6-5.9-17-8.8-31-8.8h-20.3V-126z"/>
					</g>
					<g>
						<path id="DejaVuSans-31_00000067927361219840878570000004746657416579092911_" d="M9955.2-190.6h16.1v55.6l-17.5-3.5v9
							l17.4,3.5h9.9v-64.6h16.1v-8.3h-42V-190.6z"/>
					</g>
					<g>
						<path id="DejaVuSans-32_00000163780952752850417170000013664354686467627199_" d="M10025.6-190.6h34.4v-8.3h-46.3v8.3
							c3.7,3.9,8.8,9.1,15.3,15.6c6.5,6.5,10.5,10.7,12.2,12.6c3.2,3.5,5.4,6.5,6.6,9c1.3,2.5,1.9,4.9,1.9,7.2c0,3.9-1.4,7-4.1,9.5
							c-2.7,2.4-6.3,3.7-10.6,3.7c-3.1,0-6.4-0.5-9.8-1.6c-3.4-1.1-7.1-2.7-11-4.9v10c4,1.6,7.7,2.8,11.1,3.6
							c3.5,0.8,6.6,1.2,9.5,1.2c7.6,0,13.6-1.9,18.1-5.7c4.5-3.8,6.7-8.8,6.7-15.1c0-3-0.6-5.8-1.7-8.5c-1.1-2.7-3.2-5.8-6.1-9.5
							c-0.8-0.9-3.4-3.7-7.8-8.2C10039.7-176.2,10033.5-182.5,10025.6-190.6z"/>
					</g>
				</g>
			</g>
			<g id="text_18_00000029732388610449358550000005452105106178908590_">
				<g transform="translate(209.837317 467.015397)scale(0.1 -0.1)">
					<g>
						<path id="DejaVuSans-4d_00000013884231329759300950000013199587079921381801_" d="M9759.8-126h14.7l18.6-49.6l18.7,49.6h14.7
							v-72.9h-9.6v64l-18.8-50h-9.9l-18.8,50v-64h-9.6V-126z"/>
					</g>
					<g>
						<path id="DejaVuSans-49_00000075860952972345214870000009882104390674595733_" d="M9846.1-126h9.9v-72.9h-9.9V-126z"/>
					</g>
					<g>
						<path id="DejaVuSans-44_00000137824174026389369870000016303905800935691435_" d="M9885.4-134.1v-56.7h11.9
							c10.1,0,17.4,2.3,22.1,6.8c4.7,4.6,7,11.8,7,21.6c0,9.8-2.3,16.9-7,21.5c-4.7,4.5-12,6.8-22.1,6.8H9885.4z M9875.6-126h20.3
							c14.1,0,24.5-2.9,31.1-8.8c6.6-5.9,9.9-15.1,9.9-27.6c0-12.6-3.3-21.8-10-27.7c-6.6-5.9-17-8.8-31-8.8h-20.3V-126z"/>
					</g>
					<g>
						<path id="DejaVuSans-31_00000061454424033040069120000015052370594198561721_" d="M9955.2-190.6h16.1v55.6l-17.5-3.5v9
							l17.4,3.5h9.9v-64.6h16.1v-8.3h-42V-190.6z"/>
					</g>
					<g>
						<path id="DejaVuSans-30_00000081648066920948241230000011621974356486437016_" d="M10038.2-132.5c-5.1,0-8.9-2.5-11.5-7.5
							c-2.6-5-3.8-12.5-3.8-22.5c0-10,1.3-17.5,3.8-22.5c2.6-5,6.4-7.5,11.5-7.5c5.1,0,8.9,2.5,11.5,7.5c2.6,5,3.8,12.5,3.8,22.5
							c0,10-1.3,17.5-3.8,22.5C10047.1-135,10043.3-132.5,10038.2-132.5z M10038.2-124.7c8.2,0,14.4-3.2,18.7-9.7
							c4.3-6.5,6.5-15.8,6.5-28.1c0-12.3-2.2-21.6-6.5-28.1c-4.3-6.5-10.6-9.7-18.7-9.7c-8.2,0-14.4,3.2-18.7,9.7
							c-4.3,6.5-6.5,15.8-6.5,28.1c0,12.3,2.2,21.7,6.5,28.1C10023.8-127.9,10030-124.7,10038.2-124.7z"/>
					</g>
				</g>
			</g>
			<g id="text_19_00000054239777808155616180000018418546534525853355_">
				<g transform="translate(198.556168 598.75976)scale(0.1 -0.1)">
					<g>
						<path id="DejaVuSans-4c_00000045606882036083236200000015820578474497360781_" d="M9759.8-126h9.9v-64.6h35.5v-8.3h-45.4V-126
							z"/>
					</g>
					<g>
						<path id="DejaVuSans-41_00000114060416434927981070000014199446362225076915_" d="M9842.2-135.7l-13.4-36.3h26.8L9842.2-135.7
							z M9836.6-126h11.2l27.8-72.9h-10.2l-6.6,18.7h-32.9l-6.6-18.7h-10.4L9836.6-126z"/>
					</g>
					<g>
						<path id="DejaVuSans-54_00000134248991024815892920000001129364255310932908_" d="M9868.3-126h61.7v-8.3h-25.9v-64.6h-9.9
							v64.6h-25.9V-126z"/>
					</g>
				</g>
			</g>
		</g>
	</g>
</g>
<g id="R">
	<g id="figure_1_00000016760116940274976370000000179471823736001168_">
		<g id="axes_1_00000090292562998765049130000003301350280844037565_">
			<g id="line2d_1_00000119119154782291113630000018266400038378160778_">
				<g>
					<defs>
						<rect id="SVGID_00000028296668128924997460000003230265881058148512_" x="1323.6" y="106.3" width="121.1" height="554.4"/>
					</defs>
					<clipPath id="SVGID_00000069375307293406085020000010881853753065649825_">
						<use xlink:href="#SVGID_00000028296668128924997460000003230265881058148512_"  style="overflow:visible;"/>
					</clipPath>
					
						<path style="clip-path:url(#SVGID_00000069375307293406085020000010881853753065649825_);fill:none;stroke:#000000;stroke-width:1.5;stroke-linecap:square;stroke-linejoin:round;" d="
						M1384.2,635.5l16-26l-9.6-26.1V181.9l2.6-50.4h-46.4l11.2,50.4v406.6l-11.2,23.5L1384.2,635.5"/>
				</g>
			</g>
			<g id="PathCollection_1_00000093156719049208547350000015808655184983560611_">
				<g>
					<defs>
						<rect id="SVGID_00000147214911457602538110000001018398323835389882_" x="1323.6" y="106.3" width="121.1" height="554.4"/>
					</defs>
					<clipPath id="SVGID_00000054985855769926824720000008624372766259054010_">
						<use xlink:href="#SVGID_00000147214911457602538110000001018398323835389882_"  style="overflow:visible;"/>
					</clipPath>
					<g style="clip-path:url(#SVGID_00000054985855769926824720000008624372766259054010_);">
						<g>
							<path id="mcc34bed6b8_00000080920013296362234430000005822675495165760443_" class="st5" d="M1384.2,638.5
								c0.8,0,1.6-0.3,2.1-0.9c0.6-0.6,0.9-1.3,0.9-2.1c0-0.8-0.3-1.6-0.9-2.1c-0.6-0.6-1.3-0.9-2.1-0.9c-0.8,0-1.6,0.3-2.1,0.9
								c-0.6,0.6-0.9,1.3-0.9,2.1c0,0.8,0.3,1.6,0.9,2.1S1383.4,638.5,1384.2,638.5z"/>
						</g>
						<g>
							<path id="mcc34bed6b8_00000036959202916979738680000017277388118996797592_" class="st5" d="M1400.2,612.4
								c0.8,0,1.6-0.3,2.1-0.9s0.9-1.3,0.9-2.1c0-0.8-0.3-1.6-0.9-2.1c-0.6-0.6-1.3-0.9-2.1-0.9s-1.6,0.3-2.1,0.9
								c-0.6,0.6-0.9,1.3-0.9,2.1c0,0.8,0.3,1.6,0.9,2.1S1399.4,612.4,1400.2,612.4z"/>
						</g>
						<g>
							<path id="mcc34bed6b8_00000026137959962153431430000015627005487204411061_" class="st5" d="M1358,400.9
								c0.8,0,1.6-0.3,2.1-0.9c0.6-0.6,0.9-1.3,0.9-2.1c0-0.8-0.3-1.6-0.9-2.1c-0.6-0.6-1.3-0.9-2.1-0.9c-0.8,0-1.6,0.3-2.1,0.9
								c-0.6,0.6-0.9,1.3-0.9,2.1c0,0.8,0.3,1.6,0.9,2.1C1356.4,400.5,1357.2,400.9,1358,400.9z"/>
						</g>
						<g>
							<path id="mcc34bed6b8_00000012457222462956682680000003657026630506020772_" class="st5" d="M1358,422.1
								c0.8,0,1.6-0.3,2.1-0.9c0.6-0.6,0.9-1.3,0.9-2.1c0-0.8-0.3-1.6-0.9-2.1c-0.6-0.6-1.3-0.9-2.1-0.9c-0.8,0-1.6,0.3-2.1,0.9
								c-0.6,0.6-0.9,1.3-0.9,2.1c0,0.8,0.3,1.6,0.9,2.1C1356.4,421.8,1357.2,422.1,1358,422.1z"/>
						</g>
						<g>
							<path id="mcc34bed6b8_00000079473051346101993970000004572750307886451122_" class="st5" d="M1358,489.4
								c0.8,0,1.6-0.3,2.1-0.9c0.6-0.6,0.9-1.3,0.9-2.1c0-0.8-0.3-1.6-0.9-2.1c-0.6-0.6-1.3-0.9-2.1-0.9c-0.8,0-1.6,0.3-2.1,0.9
								c-0.6,0.6-0.9,1.3-0.9,2.1c0,0.8,0.3,1.6,0.9,2.1C1356.4,489.1,1357.2,489.4,1358,489.4z"/>
						</g>
						<g>
							<path id="mcc34bed6b8_00000054988487775941141390000005360422946178965651_" class="st5" d="M1346.8,615.1
								c0.8,0,1.6-0.3,2.1-0.9c0.6-0.6,0.9-1.3,0.9-2.1c0-0.8-0.3-1.6-0.9-2.1c-0.6-0.6-1.3-0.9-2.1-0.9c-0.8,0-1.6,0.3-2.1,0.9
								c-0.6,0.6-0.9,1.3-0.9,2.1c0,0.8,0.3,1.6,0.9,2.1S1346,615.1,1346.8,615.1z"/>
						</g>
					</g>
				</g>
			</g>
			<g id="matplotlib.axis_1_00000098902217799811777270000006553971763317557936_">
				<g id="xtick_1_00000003093005698957236350000003140944444436630455_">
					<g id="line2d_2_00000101087301740340968360000018370564487681209501_">
						<g>
							<g>
								<path id="m5aa7cc32ce_00000066485352286529410310000006761535277071517853_" class="st6" d="M1323.6,660.7v3.5"/>
							</g>
						</g>
					</g>
					<g id="text_1_00000137117213072461759490000016125929348527277985_">
						<g transform="translate(165.067116 655.398438)scale(0.1 -0.1)">
							<g>
								<path id="DejaVuSans-2212_00000152230747262898558960000013563162049149316517_" d="M11490.6-163.3h62.6v-8.3h-62.6V-163.3z
									"/>
							</g>
							<g>
								<path id="DejaVuSans-34_00000111189675116066071510000002484476754266897555_" d="M11601.6-134.5l-24.9-38.9h24.9V-134.5z
									 M11599-125.9h12.4v-47.5h10.4v-8.2h-10.4v-17.2h-9.8v17.2h-32.9v9.5L11599-125.9z"/>
							</g>
							<g>
								<path id="DejaVuSans-30_00000119824652056214578420000002894046783310929296_" d="M11659.2-132.4c-5.1,0-8.9-2.5-11.5-7.5
									c-2.6-5-3.8-12.5-3.8-22.5c0-10,1.3-17.5,3.8-22.5c2.6-5,6.4-7.5,11.5-7.5c5.1,0,8.9,2.5,11.5,7.5c2.6,5,3.8,12.5,3.8,22.5
									c0,10-1.3,17.5-3.8,22.5C11668.1-134.9,11664.3-132.4,11659.2-132.4z M11659.2-124.6c8.2,0,14.4-3.2,18.7-9.7
									c4.3-6.5,6.5-15.8,6.5-28.1c0-12.3-2.2-21.6-6.5-28.1c-4.3-6.5-10.6-9.7-18.7-9.7c-8.2,0-14.4,3.2-18.7,9.7
									c-4.3,6.5-6.5,15.8-6.5,28.1c0,12.3,2.2,21.7,6.5,28.1C11644.8-127.8,11651-124.6,11659.2-124.6z"/>
							</g>
						</g>
					</g>
				</g>
				<g id="xtick_2_00000124870292124245223120000011670902642899119291_">
					<g id="line2d_3_00000150825248569911204820000012888575379210645695_">
						<g>
							<g>
								<path id="m5aa7cc32ce_00000052803072578009039520000006689212667046371518_" class="st6" d="M1353.9,660.7v3.5"/>
							</g>
						</g>
					</g>
					<g id="text_2_00000050628180991356748270000016018601972378306461_">
						<g transform="translate(195.337386 655.398438)scale(0.1 -0.1)">
							<g>
								<path id="DejaVuSans-2212_00000154395956031479296220000009665387841861318820_" d="M11490.6-163.3h62.6v-8.3h-62.6V-163.3z
									"/>
							</g>
							<g>
								<path id="DejaVuSans-32_00000119811999364984596740000011473279689039475087_" d="M11583-190.5h34.4v-8.3h-46.3v8.3
									c3.7,3.9,8.8,9.1,15.3,15.6c6.5,6.5,10.5,10.7,12.2,12.6c3.2,3.5,5.4,6.5,6.6,9c1.3,2.5,1.9,4.9,1.9,7.2
									c0,3.9-1.4,7-4.1,9.5c-2.7,2.4-6.3,3.7-10.6,3.7c-3.1,0-6.4-0.5-9.8-1.6c-3.4-1.1-7.1-2.7-11-4.9v10c4,1.6,7.7,2.8,11.1,3.6
									c3.5,0.8,6.6,1.2,9.5,1.2c7.6,0,13.6-1.9,18.1-5.7c4.5-3.8,6.7-8.8,6.7-15.1c0-3-0.6-5.8-1.7-8.5c-1.1-2.7-3.2-5.8-6.1-9.5
									c-0.8-0.9-3.4-3.7-7.8-8.2C11597.1-176.1,11590.9-182.4,11583-190.5z"/>
							</g>
							<g>
								<path id="DejaVuSans-30_00000093137323377708589010000008705877406968445351_" d="M11659.2-132.4c-5.1,0-8.9-2.5-11.5-7.5
									c-2.6-5-3.8-12.5-3.8-22.5c0-10,1.3-17.5,3.8-22.5c2.6-5,6.4-7.5,11.5-7.5c5.1,0,8.9,2.5,11.5,7.5c2.6,5,3.8,12.5,3.8,22.5
									c0,10-1.3,17.5-3.8,22.5C11668.1-134.9,11664.3-132.4,11659.2-132.4z M11659.2-124.6c8.2,0,14.4-3.2,18.7-9.7
									c4.3-6.5,6.5-15.8,6.5-28.1c0-12.3-2.2-21.6-6.5-28.1c-4.3-6.5-10.6-9.7-18.7-9.7c-8.2,0-14.4,3.2-18.7,9.7
									c-4.3,6.5-6.5,15.8-6.5,28.1c0,12.3,2.2,21.7,6.5,28.1C11644.8-127.8,11651-124.6,11659.2-124.6z"/>
							</g>
						</g>
					</g>
				</g>
				<g id="xtick_3_00000108281024222900456970000000287662965336390559_">
					<g id="line2d_4_00000055692626175862964660000001274283415045139874_">
						<g>
							<g>
								<path id="m5aa7cc32ce_00000114775187422386082520000013536721166180445343_" class="st6" d="M1384.2,660.7v3.5"/>
							</g>
						</g>
					</g>
					<g id="text_3_00000033337476895972584250000017741150102166720407_">
						<g transform="translate(232.97875 655.398438)scale(0.1 -0.1)">
							<g>
								<path id="DejaVuSans-30_00000145024676177894278600000014695763319083778948_" d="M11511.8-132.4c-5.1,0-8.9-2.5-11.5-7.5
									c-2.6-5-3.8-12.5-3.8-22.5c0-10,1.3-17.5,3.8-22.5c2.6-5,6.4-7.5,11.5-7.5c5.1,0,8.9,2.5,11.5,7.5c2.6,5,3.8,12.5,3.8,22.5
									c0,10-1.3,17.5-3.8,22.5C11520.7-134.9,11516.9-132.4,11511.8-132.4z M11511.8-124.6c8.2,0,14.4-3.2,18.7-9.7
									c4.3-6.5,6.5-15.8,6.5-28.1c0-12.3-2.2-21.6-6.5-28.1c-4.3-6.5-10.6-9.7-18.7-9.7c-8.2,0-14.4,3.2-18.7,9.7
									c-4.3,6.5-6.5,15.8-6.5,28.1c0,12.3,2.2,21.7,6.5,28.1C11497.4-127.8,11503.6-124.6,11511.8-124.6z"/>
							</g>
						</g>
					</g>
				</g>
				<g id="xtick_4_00000052100293377148825770000016475525979383850133_">
					<g id="line2d_5_00000087398422026162503150000002137494267286057863_">
						<g>
							<g>
								<path id="m5aa7cc32ce_00000175308450232750154850000012723978066602608543_" class="st6" d="M1414.4,660.7v3.5"/>
							</g>
						</g>
					</g>
					<g id="text_4_00000154410774943486975230000014649473093771862706_">
						<g transform="translate(260.06777 655.398438)scale(0.1 -0.1)">
							<g>
								<path id="DejaVuSans-32_00000023276903868413564970000002306929098420175010_" d="M11499.2-190.5h34.4v-8.3h-46.3v8.3
									c3.7,3.9,8.8,9.1,15.3,15.6c6.5,6.5,10.5,10.7,12.2,12.6c3.2,3.5,5.4,6.5,6.6,9c1.3,2.5,1.9,4.9,1.9,7.2
									c0,3.9-1.4,7-4.1,9.5c-2.7,2.4-6.3,3.7-10.6,3.7c-3.1,0-6.4-0.5-9.8-1.6c-3.4-1.1-7.1-2.7-11-4.9v10c4,1.6,7.7,2.8,11.1,3.6
									c3.5,0.8,6.6,1.2,9.5,1.2c7.6,0,13.6-1.9,18.1-5.7c4.5-3.8,6.7-8.8,6.7-15.1c0-3-0.6-5.8-1.7-8.5c-1.1-2.7-3.2-5.8-6.1-9.5
									c-0.8-0.9-3.4-3.7-7.8-8.2C11513.3-176.1,11507.1-182.4,11499.2-190.5z"/>
							</g>
							<g>
								<path id="DejaVuSans-30_00000070078430313567489020000017666934950234161064_" d="M11575.4-132.4c-5.1,0-8.9-2.5-11.5-7.5
									c-2.6-5-3.8-12.5-3.8-22.5c0-10,1.3-17.5,3.8-22.5c2.6-5,6.4-7.5,11.5-7.5c5.1,0,8.9,2.5,11.5,7.5c2.6,5,3.8,12.5,3.8,22.5
									c0,10-1.3,17.5-3.8,22.5C11584.4-134.9,11580.5-132.4,11575.4-132.4z M11575.4-124.6c8.2,0,14.4-3.2,18.7-9.7
									c4.3-6.5,6.5-15.8,6.5-28.1c0-12.3-2.2-21.6-6.5-28.1c-4.3-6.5-10.6-9.7-18.7-9.7c-8.2,0-14.4,3.2-18.7,9.7
									c-4.3,6.5-6.5,15.8-6.5,28.1c0,12.3,2.2,21.7,6.5,28.1C11561-127.8,11567.2-124.6,11575.4-124.6z"/>
							</g>
						</g>
					</g>
				</g>
				<g id="xtick_5_00000094590116208178480380000005976800618161801145_">
					<g id="line2d_6_00000029004200730882260380000016017154077012716698_">
						<g>
							<g>
								<path id="m5aa7cc32ce_00000177448994913008337140000014506243788388436880_" class="st6" d="M1444.7,660.7v3.5"/>
							</g>
						</g>
					</g>
					<g id="text_5_00000134938143662450652240000015143432789456658830_">
						<g transform="translate(290.338041 655.398438)scale(0.1 -0.1)">
							<g>
								<path id="DejaVuSans-34_00000161594758182249944830000016910398999087933070_" d="M11517.8-134.5l-24.9-38.9h24.9V-134.5z
									 M11515.2-125.9h12.4v-47.5h10.4v-8.2h-10.4v-17.2h-9.8v17.2h-32.9v9.5L11515.2-125.9z"/>
							</g>
							<g>
								<path id="DejaVuSans-30_00000104692199378226160130000000241731101689378489_" d="M11575.4-132.4c-5.1,0-8.9-2.5-11.5-7.5
									c-2.6-5-3.8-12.5-3.8-22.5c0-10,1.3-17.5,3.8-22.5c2.6-5,6.4-7.5,11.5-7.5c5.1,0,8.9,2.5,11.5,7.5c2.6,5,3.8,12.5,3.8,22.5
									c0,10-1.3,17.5-3.8,22.5C11584.4-134.9,11580.5-132.4,11575.4-132.4z M11575.4-124.6c8.2,0,14.4-3.2,18.7-9.7
									c4.3-6.5,6.5-15.8,6.5-28.1c0-12.3-2.2-21.6-6.5-28.1c-4.3-6.5-10.6-9.7-18.7-9.7c-8.2,0-14.4,3.2-18.7,9.7
									c-4.3,6.5-6.5,15.8-6.5,28.1c0,12.3,2.2,21.7,6.5,28.1C11561-127.8,11567.2-124.6,11575.4-124.6z"/>
							</g>
						</g>
					</g>
				</g>
			</g>
			<g id="matplotlib.axis_2_00000079481559244362343840000011035375696835525511_">
				<g id="ytick_1_00000101086394424831665150000005689291544928461723_">
					<g id="line2d_7_00000136374420637408768680000004508073029898858907_">
						<g>
							<g>
								<path id="mae4a4177d2_00000045595108040233628940000009676570829663621027_" class="st6" d="M1323.6,635.5h-3.5"/>
							</g>
						</g>
					</g>
					<g id="text_6_00000103982553471854390060000000578043214795517877_">
						<g transform="translate(162.256959 619.399219)scale(0.1 -0.1)">
							<g>
								<path id="DejaVuSans-30_00000091730590731552554490000015599549901715162552_" d="M11511.8-132.4c-5.1,0-8.9-2.5-11.5-7.5
									c-2.6-5-3.8-12.5-3.8-22.5c0-10,1.3-17.5,3.8-22.5c2.6-5,6.4-7.5,11.5-7.5c5.1,0,8.9,2.5,11.5,7.5c2.6,5,3.8,12.5,3.8,22.5
									c0,10-1.3,17.5-3.8,22.5C11520.7-134.9,11516.9-132.4,11511.8-132.4z M11511.8-124.6c8.2,0,14.4-3.2,18.7-9.7
									c4.3-6.5,6.5-15.8,6.5-28.1c0-12.3-2.2-21.6-6.5-28.1c-4.3-6.5-10.6-9.7-18.7-9.7c-8.2,0-14.4,3.2-18.7,9.7
									c-4.3,6.5-6.5,15.8-6.5,28.1c0,12.3,2.2,21.7,6.5,28.1C11497.4-127.8,11503.6-124.6,11511.8-124.6z"/>
							</g>
						</g>
					</g>
				</g>
				<g id="ytick_2_00000170237773149422518750000008110142251896141218_">
					<g id="line2d_8_00000024722208073562911930000015628902578890564539_">
						<g>
							<g>
								<path id="mae4a4177d2_00000147191991587455619550000018227038764166580918_" class="st6" d="M1323.6,559.8h-3.5"/>
							</g>
						</g>
					</g>
					<g id="text_7_00000002354443604464382580000017683154553514482354_">
						<g transform="translate(155.894459 543.723543)scale(0.1 -0.1)">
							<g>
								<path id="DejaVuSans-35_00000044900665452771546790000000083964564094281344_" d="M11490.8-125.9h38.7v-8.3h-29.7v-17.9
									c1.4,0.5,2.9,0.9,4.3,1.1c1.4,0.2,2.9,0.4,4.3,0.4c8.1,0,14.6-2.2,19.3-6.7c4.8-4.5,7.1-10.5,7.1-18.1
									c0-7.8-2.4-13.9-7.3-18.3c-4.9-4.3-11.8-6.5-20.7-6.5c-3.1,0-6.2,0.3-9.4,0.8c-3.2,0.5-6.4,1.3-9.8,2.3v9.9
									c2.9-1.6,6-2.8,9.1-3.6s6.4-1.2,9.9-1.2c5.6,0,10.1,1.5,13.4,4.4c3.3,3,4.9,7,4.9,12.1c0,5.1-1.6,9.1-4.9,12
									c-3.3,3-7.7,4.5-13.4,4.5c-2.6,0-5.3-0.3-7.9-0.9c-2.6-0.6-5.3-1.5-8-2.7V-125.9z"/>
							</g>
							<g>
								<path id="DejaVuSans-30_00000034059359632229271250000016497577972564782499_" d="M11575.4-132.4c-5.1,0-8.9-2.5-11.5-7.5
									c-2.6-5-3.8-12.5-3.8-22.5c0-10,1.3-17.5,3.8-22.5c2.6-5,6.4-7.5,11.5-7.5c5.1,0,8.9,2.5,11.5,7.5c2.6,5,3.8,12.5,3.8,22.5
									c0,10-1.3,17.5-3.8,22.5C11584.4-134.9,11580.5-132.4,11575.4-132.4z M11575.4-124.6c8.2,0,14.4-3.2,18.7-9.7
									c4.3-6.5,6.5-15.8,6.5-28.1c0-12.3-2.2-21.6-6.5-28.1c-4.3-6.5-10.6-9.7-18.7-9.7c-8.2,0-14.4,3.2-18.7,9.7
									c-4.3,6.5-6.5,15.8-6.5,28.1c0,12.3,2.2,21.7,6.5,28.1C11561-127.8,11567.2-124.6,11575.4-124.6z"/>
							</g>
						</g>
					</g>
				</g>
				<g id="ytick_3_00000089565933084987553700000005479503613736368042_">
					<g id="line2d_9_00000117635838551491274350000017920843096247164593_">
						<g>
							<g>
								<path id="mae4a4177d2_00000034061265223370743820000004381965706493151120_" class="st6" d="M1323.6,484.1h-3.5"/>
							</g>
						</g>
					</g>
					<g id="text_8_00000083783276000896940220000007127017925423392940_">
						<g transform="translate(149.531959 468.047867)scale(0.1 -0.1)">
							<g>
								<path id="DejaVuSans-31_00000114068394684421929900000000198767762777653133_" d="M11492.4-190.5h16.1v55.6l-17.5-3.5v9
									l17.4,3.5h9.9v-64.6h16.1v-8.3h-42V-190.5z"/>
							</g>
							<g>
								<path id="DejaVuSans-30_00000036237822998319498010000014956847605229211791_" d="M11575.4-132.4c-5.1,0-8.9-2.5-11.5-7.5
									c-2.6-5-3.8-12.5-3.8-22.5c0-10,1.3-17.5,3.8-22.5c2.6-5,6.4-7.5,11.5-7.5c5.1,0,8.9,2.5,11.5,7.5c2.6,5,3.8,12.5,3.8,22.5
									c0,10-1.3,17.5-3.8,22.5C11584.4-134.9,11580.5-132.4,11575.4-132.4z M11575.4-124.6c8.2,0,14.4-3.2,18.7-9.7
									c4.3-6.5,6.5-15.8,6.5-28.1c0-12.3-2.2-21.6-6.5-28.1c-4.3-6.5-10.6-9.7-18.7-9.7c-8.2,0-14.4,3.2-18.7,9.7
									c-4.3,6.5-6.5,15.8-6.5,28.1c0,12.3,2.2,21.7,6.5,28.1C11561-127.8,11567.2-124.6,11575.4-124.6z"/>
							</g>
							<g>
								<path id="DejaVuSans-30_00000075864664909591974790000009129922398849631919_" d="M11639-132.4c-5.1,0-8.9-2.5-11.5-7.5
									c-2.6-5-3.8-12.5-3.8-22.5c0-10,1.3-17.5,3.8-22.5c2.6-5,6.4-7.5,11.5-7.5c5.1,0,8.9,2.5,11.5,7.5c2.6,5,3.8,12.5,3.8,22.5
									c0,10-1.3,17.5-3.8,22.5C11648-134.9,11644.1-132.4,11639-132.4z M11639-124.6c8.2,0,14.4-3.2,18.7-9.7
									c4.3-6.5,6.5-15.8,6.5-28.1c0-12.3-2.2-21.6-6.5-28.1c-4.3-6.5-10.6-9.7-18.7-9.7c-8.2,0-14.4,3.2-18.7,9.7
									c-4.3,6.5-6.5,15.8-6.5,28.1c0,12.3,2.2,21.7,6.5,28.1C11624.6-127.8,11630.9-124.6,11639-124.6z"/>
							</g>
						</g>
					</g>
				</g>
				<g id="ytick_4_00000026866340564104483630000008263578103931821984_">
					<g id="line2d_10_00000088819940526511575550000017188182843409822876_">
						<g>
							<g>
								<path id="mae4a4177d2_00000099643234717966042000000006155164406516256954_" class="st6" d="M1323.6,408.5h-3.5"/>
							</g>
						</g>
					</g>
					<g id="text_9_00000093175076530236568090000017870914270432931477_">
						<g transform="translate(149.531959 392.372192)scale(0.1 -0.1)">
							<g>
								<path id="DejaVuSans-31_00000083087374573234223460000002717675871472347053_" d="M11492.4-190.5h16.1v55.6l-17.5-3.5v9
									l17.4,3.5h9.9v-64.6h16.1v-8.3h-42V-190.5z"/>
							</g>
							<g>
								<path id="DejaVuSans-35_00000103227168513307839490000003621487382601248657_" d="M11554.4-125.9h38.7v-8.3h-29.7v-17.9
									c1.4,0.5,2.9,0.9,4.3,1.1c1.4,0.2,2.9,0.4,4.3,0.4c8.1,0,14.6-2.2,19.3-6.7c4.8-4.5,7.1-10.5,7.1-18.1
									c0-7.8-2.4-13.9-7.3-18.3c-4.9-4.3-11.8-6.5-20.7-6.5c-3.1,0-6.2,0.3-9.4,0.8c-3.2,0.5-6.4,1.3-9.8,2.3v9.9
									c2.9-1.6,6-2.8,9.1-3.6s6.4-1.2,9.9-1.2c5.6,0,10.1,1.5,13.4,4.4c3.3,3,4.9,7,4.9,12.1c0,5.1-1.6,9.1-4.9,12
									c-3.3,3-7.7,4.5-13.4,4.5c-2.6,0-5.3-0.3-7.9-0.9c-2.6-0.6-5.3-1.5-8-2.7V-125.9z"/>
							</g>
							<g>
								<path id="DejaVuSans-30_00000096771207692324387850000012134935463275195569_" d="M11639-132.4c-5.1,0-8.9-2.5-11.5-7.5
									c-2.6-5-3.8-12.5-3.8-22.5c0-10,1.3-17.5,3.8-22.5c2.6-5,6.4-7.5,11.5-7.5c5.1,0,8.9,2.5,11.5,7.5c2.6,5,3.8,12.5,3.8,22.5
									c0,10-1.3,17.5-3.8,22.5C11648-134.9,11644.1-132.4,11639-132.4z M11639-124.6c8.2,0,14.4-3.2,18.7-9.7
									c4.3-6.5,6.5-15.8,6.5-28.1c0-12.3-2.2-21.6-6.5-28.1c-4.3-6.5-10.6-9.7-18.7-9.7c-8.2,0-14.4,3.2-18.7,9.7
									c-4.3,6.5-6.5,15.8-6.5,28.1c0,12.3,2.2,21.7,6.5,28.1C11624.6-127.8,11630.9-124.6,11639-124.6z"/>
							</g>
						</g>
					</g>
				</g>
				<g id="ytick_5_00000108291755169510925050000016716624475154230183_">
					<g id="line2d_11_00000095336610531551997100000000961053613206459803_">
						<g>
							<g>
								<path id="mae4a4177d2_00000181057613963481456490000014898645126253776269_" class="st6" d="M1323.6,332.8h-3.5"/>
							</g>
						</g>
					</g>
					<g id="text_10_00000061461882893243249960000011974437679366688397_">
						<g transform="translate(149.531959 316.696516)scale(0.1 -0.1)">
							<g>
								<path id="DejaVuSans-32_00000170985974222782442090000010495465814980884157_" d="M11499.2-190.5h34.4v-8.3h-46.3v8.3
									c3.7,3.9,8.8,9.1,15.3,15.6c6.5,6.5,10.5,10.7,12.2,12.6c3.2,3.5,5.4,6.5,6.6,9c1.3,2.5,1.9,4.9,1.9,7.2
									c0,3.9-1.4,7-4.1,9.5c-2.7,2.4-6.3,3.7-10.6,3.7c-3.1,0-6.4-0.5-9.8-1.6c-3.4-1.1-7.1-2.7-11-4.9v10c4,1.6,7.7,2.8,11.1,3.6
									c3.5,0.8,6.6,1.2,9.5,1.2c7.6,0,13.6-1.9,18.1-5.7c4.5-3.8,6.7-8.8,6.7-15.1c0-3-0.6-5.8-1.7-8.5c-1.1-2.7-3.2-5.8-6.1-9.5
									c-0.8-0.9-3.4-3.7-7.8-8.2C11513.3-176.1,11507.1-182.4,11499.2-190.5z"/>
							</g>
							<g>
								<path id="DejaVuSans-30_00000060717322600000448060000017730755409600347064_" d="M11575.4-132.4c-5.1,0-8.9-2.5-11.5-7.5
									c-2.6-5-3.8-12.5-3.8-22.5c0-10,1.3-17.5,3.8-22.5c2.6-5,6.4-7.5,11.5-7.5c5.1,0,8.9,2.5,11.5,7.5c2.6,5,3.8,12.5,3.8,22.5
									c0,10-1.3,17.5-3.8,22.5C11584.4-134.9,11580.5-132.4,11575.4-132.4z M11575.4-124.6c8.2,0,14.4-3.2,18.7-9.7
									c4.3-6.5,6.5-15.8,6.5-28.1c0-12.3-2.2-21.6-6.5-28.1c-4.3-6.5-10.6-9.7-18.7-9.7c-8.2,0-14.4,3.2-18.7,9.7
									c-4.3,6.5-6.5,15.8-6.5,28.1c0,12.3,2.2,21.7,6.5,28.1C11561-127.8,11567.2-124.6,11575.4-124.6z"/>
							</g>
							<g>
								<path id="DejaVuSans-30_00000001646289529718896400000005356109490716143270_" d="M11639-132.4c-5.1,0-8.9-2.5-11.5-7.5
									c-2.6-5-3.8-12.5-3.8-22.5c0-10,1.3-17.5,3.8-22.5c2.6-5,6.4-7.5,11.5-7.5c5.1,0,8.9,2.5,11.5,7.5c2.6,5,3.8,12.5,3.8,22.5
									c0,10-1.3,17.5-3.8,22.5C11648-134.9,11644.1-132.4,11639-132.4z M11639-124.6c8.2,0,14.4-3.2,18.7-9.7
									c4.3-6.5,6.5-15.8,6.5-28.1c0-12.3-2.2-21.6-6.5-28.1c-4.3-6.5-10.6-9.7-18.7-9.7c-8.2,0-14.4,3.2-18.7,9.7
									c-4.3,6.5-6.5,15.8-6.5,28.1c0,12.3,2.2,21.7,6.5,28.1C11624.6-127.8,11630.9-124.6,11639-124.6z"/>
							</g>
						</g>
					</g>
				</g>
				<g id="ytick_6_00000023254246074149147070000015275659910000872111_">
					<g id="line2d_12_00000075847773219548801700000006033129072503469485_">
						<g>
							<g>
								<path id="mae4a4177d2_00000125583877988912050550000013265989103091981204_" class="st6" d="M1323.6,257.1h-3.5"/>
							</g>
						</g>
					</g>
					<g id="text_11_00000026121269074383962650000009259467469806189470_">
						<g transform="translate(149.531959 241.02084)scale(0.1 -0.1)">
							<g>
								<path id="DejaVuSans-32_00000158744074998857027640000002161959743516981142_" d="M11499.2-190.5h34.4v-8.3h-46.3v8.3
									c3.7,3.9,8.8,9.1,15.3,15.6c6.5,6.5,10.5,10.7,12.2,12.6c3.2,3.5,5.4,6.5,6.6,9c1.3,2.5,1.9,4.9,1.9,7.2
									c0,3.9-1.4,7-4.1,9.5c-2.7,2.4-6.3,3.7-10.6,3.7c-3.1,0-6.4-0.5-9.8-1.6c-3.4-1.1-7.1-2.7-11-4.9v10c4,1.6,7.7,2.8,11.1,3.6
									c3.5,0.8,6.6,1.2,9.5,1.2c7.6,0,13.6-1.9,18.1-5.7c4.5-3.8,6.7-8.8,6.7-15.1c0-3-0.6-5.8-1.7-8.5c-1.1-2.7-3.2-5.8-6.1-9.5
									c-0.8-0.9-3.4-3.7-7.8-8.2C11513.3-176.1,11507.1-182.4,11499.2-190.5z"/>
							</g>
							<g>
								<path id="DejaVuSans-35_00000007418626377739500980000001011846167719502734_" d="M11554.4-125.9h38.7v-8.3h-29.7v-17.9
									c1.4,0.5,2.9,0.9,4.3,1.1c1.4,0.2,2.9,0.4,4.3,0.4c8.1,0,14.6-2.2,19.3-6.7c4.8-4.5,7.1-10.5,7.1-18.1
									c0-7.8-2.4-13.9-7.3-18.3c-4.9-4.3-11.8-6.5-20.7-6.5c-3.1,0-6.2,0.3-9.4,0.8c-3.2,0.5-6.4,1.3-9.8,2.3v9.9
									c2.9-1.6,6-2.8,9.1-3.6s6.4-1.2,9.9-1.2c5.6,0,10.1,1.5,13.4,4.4c3.3,3,4.9,7,4.9,12.1c0,5.1-1.6,9.1-4.9,12
									c-3.3,3-7.7,4.5-13.4,4.5c-2.6,0-5.3-0.3-7.9-0.9c-2.6-0.6-5.3-1.5-8-2.7V-125.9z"/>
							</g>
							<g>
								<path id="DejaVuSans-30_00000085938632556507202400000017988303522422102168_" d="M11639-132.4c-5.1,0-8.9-2.5-11.5-7.5
									c-2.6-5-3.8-12.5-3.8-22.5c0-10,1.3-17.5,3.8-22.5c2.6-5,6.4-7.5,11.5-7.5c5.1,0,8.9,2.5,11.5,7.5c2.6,5,3.8,12.5,3.8,22.5
									c0,10-1.3,17.5-3.8,22.5C11648-134.9,11644.1-132.4,11639-132.4z M11639-124.6c8.2,0,14.4-3.2,18.7-9.7
									c4.3-6.5,6.5-15.8,6.5-28.1c0-12.3-2.2-21.6-6.5-28.1c-4.3-6.5-10.6-9.7-18.7-9.7c-8.2,0-14.4,3.2-18.7,9.7
									c-4.3,6.5-6.5,15.8-6.5,28.1c0,12.3,2.2,21.7,6.5,28.1C11624.6-127.8,11630.9-124.6,11639-124.6z"/>
							</g>
						</g>
					</g>
				</g>
				<g id="ytick_7_00000046310633330409576160000003057163540372672944_">
					<g id="line2d_13_00000003791886158092714950000016795860257526719407_">
						<g>
							<g>
								<path id="mae4a4177d2_00000129912685187643101360000000832177504047321485_" class="st6" d="M1323.6,181.4h-3.5"/>
							</g>
						</g>
					</g>
					<g id="text_12_00000071558233091531514760000017388113110788376761_">
						<g transform="translate(149.531959 165.345165)scale(0.1 -0.1)">
							<g>
								<path id="DejaVuSans-33_00000129900590034532245390000005759209674670865341_" d="M11520.6-159.5c4.7-1,8.4-3.1,11-6.3
									c2.7-3.2,4-7.1,4-11.8c0-7.2-2.5-12.8-7.4-16.7c-4.9-3.9-12-5.9-21.1-5.9c-3.1,0-6.2,0.3-9.4,0.9s-6.6,1.5-10,2.7v9.5
									c2.7-1.6,5.7-2.8,9-3.6c3.3-0.8,6.7-1.2,10.2-1.2c6.2,0,10.9,1.2,14.1,3.7s4.9,6,4.9,10.6c0,4.3-1.5,7.7-4.5,10.1
									c-3,2.4-7.2,3.6-12.6,3.6h-8.5v8.1h8.9c4.8,0,8.6,1,11.1,2.9s3.9,4.7,3.9,8.4c0,3.7-1.3,6.6-4,8.6c-2.6,2-6.4,3-11.4,3
									c-2.7,0-5.6-0.3-8.7-0.9c-3.1-0.6-6.5-1.5-10.2-2.7v8.8c3.8,1,7.3,1.8,10.5,2.3s6.4,0.8,9.2,0.8c7.5,0,13.4-1.7,17.8-5.1
									c4.4-3.4,6.5-8,6.5-13.8c0-4-1.2-7.5-3.5-10.2S11524.8-158.4,11520.6-159.5z"/>
							</g>
							<g>
								<path id="DejaVuSans-30_00000079465282274723748630000011619260878156253362_" d="M11575.4-132.4c-5.1,0-8.9-2.5-11.5-7.5
									c-2.6-5-3.8-12.5-3.8-22.5c0-10,1.3-17.5,3.8-22.5c2.6-5,6.4-7.5,11.5-7.5c5.1,0,8.9,2.5,11.5,7.5c2.6,5,3.8,12.5,3.8,22.5
									c0,10-1.3,17.5-3.8,22.5C11584.4-134.9,11580.5-132.4,11575.4-132.4z M11575.4-124.6c8.2,0,14.4-3.2,18.7-9.7
									c4.3-6.5,6.5-15.8,6.5-28.1c0-12.3-2.2-21.6-6.5-28.1c-4.3-6.5-10.6-9.7-18.7-9.7c-8.2,0-14.4,3.2-18.7,9.7
									c-4.3,6.5-6.5,15.8-6.5,28.1c0,12.3,2.2,21.7,6.5,28.1C11561-127.8,11567.2-124.6,11575.4-124.6z"/>
							</g>
							<g>
								<path id="DejaVuSans-30_00000010995081464074137750000001287680570305607332_" d="M11639-132.4c-5.1,0-8.9-2.5-11.5-7.5
									c-2.6-5-3.8-12.5-3.8-22.5c0-10,1.3-17.5,3.8-22.5c2.6-5,6.4-7.5,11.5-7.5c5.1,0,8.9,2.5,11.5,7.5c2.6,5,3.8,12.5,3.8,22.5
									c0,10-1.3,17.5-3.8,22.5C11648-134.9,11644.1-132.4,11639-132.4z M11639-124.6c8.2,0,14.4-3.2,18.7-9.7
									c4.3-6.5,6.5-15.8,6.5-28.1c0-12.3-2.2-21.6-6.5-28.1c-4.3-6.5-10.6-9.7-18.7-9.7c-8.2,0-14.4,3.2-18.7,9.7
									c-4.3,6.5-6.5,15.8-6.5,28.1c0,12.3,2.2,21.7,6.5,28.1C11624.6-127.8,11630.9-124.6,11639-124.6z"/>
							</g>
						</g>
					</g>
				</g>
			</g>
			<g id="line2d_14_00000111164087166604476430000012001883935249461153_">
				<g>
					<defs>
						<rect id="SVGID_00000166669301358231057060000006576711948123602339_" x="1323.6" y="106.3" width="121.1" height="554.4"/>
					</defs>
					<clipPath id="SVGID_00000069388387027693102060000004535056580477024163_">
						<use xlink:href="#SVGID_00000166669301358231057060000006576711948123602339_"  style="overflow:visible;"/>
					</clipPath>
					
						<path style="clip-path:url(#SVGID_00000069388387027693102060000004535056580477024163_);fill:none;stroke:#FFA500;stroke-width:1.5;stroke-linecap:square;stroke-linejoin:round;" d="
						M1358,397.9l6.4,21.3l11.5,67.3l24.3,123l33.2,26"/>
				</g>
			</g>
			<g id="patch_3_00000024701025155762233830000003424724862787683761_">
				<path class="st8" d="M1323.6,660.7V106.3"/>
			</g>
			<g id="patch_4_00000056421706264890459140000009382615824972936841_">
				<path class="st8" d="M1444.7,660.7V106.3"/>
			</g>
			<g id="patch_5_00000105421411418677405070000008374392838012835498_">
				<path class="st8" d="M1323.6,660.7h121.1"/>
			</g>
			<g id="patch_6_00000029017946437782226440000014228376749139614860_">
				<path class="st8" d="M1323.6,106.3h121.1"/>
			</g>
			<g id="line2d_15_00000023982768234503573600000003780980804960644237_">
				<g>
					<defs>
						<rect id="SVGID_00000102507985047349017290000007324225225364716434_" x="1323.6" y="106.3" width="121.1" height="554.4"/>
					</defs>
					<clipPath id="SVGID_00000065051635078372442800000003357378687059762109_">
						<use xlink:href="#SVGID_00000102507985047349017290000007324225225364716434_"  style="overflow:visible;"/>
					</clipPath>
					
						<path style="clip-path:url(#SVGID_00000065051635078372442800000003357378687059762109_);fill:none;stroke:#FFA500;stroke-width:1.5;stroke-linecap:square;stroke-linejoin:round;" d="
						M1358,397.9l6.4,21.3l11.5,67.3l32.2,123l34.1,26"/>
				</g>
			</g>
			<g id="text_13_00000177445860152505773520000001415662630050098062_">
				<g transform="translate(236.16 615.6)scale(0.1 -0.1)">
					<g>
						<path id="DejaVuSans-54_00000181083944369807762190000015215614315039952545_" d="M11479.7-125.9h61.7v-8.3h-25.9v-64.6h-9.9
							v64.6h-25.9V-125.9z"/>
					</g>
					<g>
						<path id="DejaVuSans-49_00000041984189564286865210000012368366790951116682_" d="M11550.9-125.9h9.9v-72.9h-9.9V-125.9z"/>
					</g>
					<g>
						<path id="DejaVuSans-50_00000164486652693150738730000007101402377404792224_" d="M11590.2-134v-27.4h12.4
							c4.6,0,8.1,1.2,10.6,3.6c2.5,2.4,3.8,5.8,3.8,10.2c0,4.4-1.3,7.7-3.8,10.1c-2.5,2.4-6,3.6-10.6,3.6H11590.2z M11580.4-125.9
							h22.3c8.2,0,14.4-1.8,18.5-5.5c4.2-3.7,6.3-9.1,6.3-16.2c0-7.2-2.1-12.6-6.3-16.3c-4.2-3.7-10.4-5.5-18.5-5.5h-12.4v-29.3
							h-9.9V-125.9z"/>
					</g>
				</g>
			</g>
			<g id="text_14_00000075882220779274561070000017400085575560779432_">
				<g transform="translate(252.188108 589.567568)scale(0.1 -0.1)">
					<g>
						<path id="DejaVuSans-4d_00000048500081871558467340000010252469036366133147_" d="M11489.8-125.9h14.7l18.6-49.6l18.7,49.6
							h14.7v-72.9h-9.6v64l-18.8-50h-9.9l-18.8,50v-64h-9.6V-125.9z"/>
					</g>
					<g>
						<path id="DejaVuSans-49_00000116223074288061118240000009160062347976088706_" d="M11576.1-125.9h9.9v-72.9h-9.9V-125.9z"/>
					</g>
					<g>
						<path id="DejaVuSans-44_00000170244264597669019510000005649448753323036351_" d="M11615.4-134v-56.7h11.9
							c10.1,0,17.4,2.3,22.1,6.8c4.7,4.6,7,11.8,7,21.6c0,9.8-2.3,16.9-7,21.5s-12,6.8-22.1,6.8H11615.4z M11605.6-125.9h20.3
							c14.1,0,24.5-2.9,31.1-8.8c6.6-5.9,9.9-15.1,9.9-27.6c0-12.6-3.3-21.8-10-27.7c-6.6-5.9-17-8.8-31-8.8h-20.3V-125.9z"/>
					</g>
				</g>
			</g>
			<g id="text_15_00000059989003820915735180000010404087515691020431_">
				<g transform="translate(209.980757 377.978378)scale(0.1 -0.1)">
					<g>
						<path id="DejaVuSans-43_00000120549297954226506620000003652839185329730210_" d="M11544.4-131.5v-10.4
							c-3.3,3.1-6.9,5.4-10.6,6.9c-3.8,1.5-7.8,2.3-12,2.3c-8.3,0-14.7-2.5-19.1-7.6s-6.6-12.5-6.6-22.1c0-9.6,2.2-17,6.6-22
							s10.8-7.6,19.1-7.6c4.2,0,8.2,0.8,12,2.3s7.3,3.8,10.6,6.9v-10.3c-3.4-2.3-7.1-4.1-11-5.3c-3.9-1.2-7.9-1.8-12.2-1.8
							c-11,0-19.7,3.4-26.1,10.1c-6.3,6.8-9.5,16-9.5,27.7c0,11.7,3.2,21,9.5,27.7c6.4,6.8,15.1,10.1,26.1,10.1
							c4.4,0,8.5-0.6,12.3-1.7C11537.4-127.5,11541-129.2,11544.4-131.5z"/>
					</g>
					<g>
						<path id="DejaVuSans-50_00000055678469539284190230000009261210513528197539_" d="M11569.5-134v-27.4h12.4
							c4.6,0,8.1,1.2,10.6,3.6c2.5,2.4,3.8,5.8,3.8,10.2c0,4.4-1.3,7.7-3.8,10.1c-2.5,2.4-6,3.6-10.6,3.6H11569.5z M11559.6-125.9
							h22.3c8.2,0,14.4-1.8,18.5-5.5c4.2-3.7,6.3-9.1,6.3-16.2c0-7.2-2.1-12.6-6.3-16.3c-4.2-3.7-10.4-5.5-18.5-5.5h-12.4v-29.3
							h-9.9V-125.9z"/>
					</g>
				</g>
			</g>
			<g id="text_16_00000174576204917904138930000015492123838113893539_">
				<g transform="translate(209.980757 399.232067)scale(0.1 -0.1)">
					<g>
						<path id="DejaVuSans-4d_00000137825790768974007090000000813014257445955482_" d="M11489.8-125.9h14.7l18.6-49.6l18.7,49.6
							h14.7v-72.9h-9.6v64l-18.8-50h-9.9l-18.8,50v-64h-9.6V-125.9z"/>
					</g>
					<g>
						<path id="DejaVuSans-49_00000041292247499545930440000004385810018856760457_" d="M11576.1-125.9h9.9v-72.9h-9.9V-125.9z"/>
					</g>
					<g>
						<path id="DejaVuSans-44_00000160152721953439828050000000793947587806708899_" d="M11615.4-134v-56.7h11.9
							c10.1,0,17.4,2.3,22.1,6.8c4.7,4.6,7,11.8,7,21.6c0,9.8-2.3,16.9-7,21.5c-4.7,4.5-12,6.8-22.1,6.8H11615.4z M11605.6-125.9
							h20.3c14.1,0,24.5-2.9,31.1-8.8c6.6-5.9,9.9-15.1,9.9-27.6c0-12.6-3.3-21.8-10-27.7c-6.6-5.9-17-8.8-31-8.8h-20.3V-125.9z"/>
					</g>
					<g>
						<path id="DejaVuSans-31_00000082366847341075168210000000773468785386069138_" d="M11685.2-190.5h16.1v55.6l-17.5-3.5v9
							l17.4,3.5h9.9v-64.6h16.1v-8.3h-42V-190.5z"/>
					</g>
					<g>
						<path id="DejaVuSans-32_00000156547764165974973140000010246388722952411543_" d="M11755.6-190.5h34.4v-8.3h-46.3v8.3
							c3.7,3.9,8.8,9.1,15.3,15.6c6.5,6.5,10.5,10.7,12.2,12.6c3.2,3.5,5.4,6.5,6.6,9c1.3,2.5,1.9,4.9,1.9,7.2c0,3.9-1.4,7-4.1,9.5
							c-2.7,2.4-6.3,3.7-10.6,3.7c-3.1,0-6.4-0.5-9.8-1.6c-3.4-1.1-7.1-2.7-11-4.9v10c4,1.6,7.7,2.8,11.1,3.6
							c3.5,0.8,6.6,1.2,9.5,1.2c7.6,0,13.6-1.9,18.1-5.7c4.5-3.8,6.7-8.8,6.7-15.1c0-3-0.6-5.8-1.7-8.5c-1.1-2.7-3.2-5.8-6.1-9.5
							c-0.8-0.9-3.4-3.7-7.8-8.2C11769.7-176.1,11763.5-182.4,11755.6-190.5z"/>
					</g>
				</g>
			</g>
			<g id="text_17_00000176039601118025450570000002353416849857061053_">
				<g transform="translate(209.980757 466.529953)scale(0.1 -0.1)">
					<g>
						<path id="DejaVuSans-4d_00000091017686163373331620000010775093038237028021_" d="M11489.8-125.9h14.7l18.6-49.6l18.7,49.6
							h14.7v-72.9h-9.6v64l-18.8-50h-9.9l-18.8,50v-64h-9.6V-125.9z"/>
					</g>
					<g>
						<path id="DejaVuSans-49_00000127765657984438049100000014470584008268600766_" d="M11576.1-125.9h9.9v-72.9h-9.9V-125.9z"/>
					</g>
					<g>
						<path id="DejaVuSans-44_00000122680090606797925530000007350162917458769282_" d="M11615.4-134v-56.7h11.9
							c10.1,0,17.4,2.3,22.1,6.8c4.7,4.6,7,11.8,7,21.6c0,9.8-2.3,16.9-7,21.5c-4.7,4.5-12,6.8-22.1,6.8H11615.4z M11605.6-125.9
							h20.3c14.1,0,24.5-2.9,31.1-8.8c6.6-5.9,9.9-15.1,9.9-27.6c0-12.6-3.3-21.8-10-27.7c-6.6-5.9-17-8.8-31-8.8h-20.3V-125.9z"/>
					</g>
					<g>
						<path id="DejaVuSans-31_00000031200610107074467450000006273045001733807249_" d="M11685.2-190.5h16.1v55.6l-17.5-3.5v9
							l17.4,3.5h9.9v-64.6h16.1v-8.3h-42V-190.5z"/>
					</g>
					<g>
						<path id="DejaVuSans-30_00000142143851527881737410000013889562276548974236_" d="M11768.2-132.4c-5.1,0-8.9-2.5-11.5-7.5
							c-2.6-5-3.8-12.5-3.8-22.5c0-10,1.3-17.5,3.8-22.5c2.6-5,6.4-7.5,11.5-7.5c5.1,0,8.9,2.5,11.5,7.5c2.6,5,3.8,12.5,3.8,22.5
							c0,10-1.3,17.5-3.8,22.5C11777.1-134.9,11773.3-132.4,11768.2-132.4z M11768.2-124.6c8.2,0,14.4-3.2,18.7-9.7
							c4.3-6.5,6.5-15.8,6.5-28.1c0-12.3-2.2-21.6-6.5-28.1c-4.3-6.5-10.6-9.7-18.7-9.7c-8.2,0-14.4,3.2-18.7,9.7
							c-4.3,6.5-6.5,15.8-6.5,28.1c0,12.3,2.2,21.7,6.5,28.1C11753.8-127.8,11760-124.6,11768.2-124.6z"/>
					</g>
				</g>
			</g>
			<g id="text_18_00000106108827311096773140000000683559214729231492_">
				<g transform="translate(198.761081 592.170811)scale(0.1 -0.1)">
					<g>
						<path id="DejaVuSans-4c_00000149371868552109564920000015664925158610400441_" d="M11489.8-125.9h9.9v-64.6h35.5v-8.3h-45.4
							V-125.9z"/>
					</g>
					<g>
						<path id="DejaVuSans-41_00000016066395294788353980000002319180840141173139_" d="M11572.2-135.6l-13.4-36.3h26.8
							L11572.2-135.6z M11566.6-125.9h11.2l27.8-72.9h-10.2l-6.6,18.7h-32.9l-6.6-18.7h-10.4L11566.6-125.9z"/>
					</g>
					<g>
						<path id="DejaVuSans-54_00000129898575011437893740000017493358594159668404_" d="M11598.3-125.9h61.7v-8.3h-25.9v-64.6h-9.9
							v64.6h-25.9V-125.9z"/>
					</g>
				</g>
			</g>
		</g>
	</g>
</g>
</svg>
